<svg width="283" height="54" viewBox="0 0 283 54" fill="none" xmlns="http://www.w3.org/2000/svg">
<path d="M0.177971 29.3952L18.3398 27.6072L18.7836 32.1147L12.2361 32.7593L14.0759 51.4476L8.97615 51.9496L7.13631 33.2614L0.621736 33.9027L0.177971 29.3952ZM19.671 25.8151L24.4747 25.3421L25.3655 34.3902C25.9788 33.4217 26.8091 32.6313 27.8561 32.0188C28.901 31.3844 29.9609 31.0143 31.0357 30.9085C32.7027 30.7444 34.2328 31.2139 35.6259 32.317C37.0191 33.4201 37.815 34.9806 38.0136 36.9986L38.0201 37.0644L39.1927 48.9749L34.389 49.4478L33.4075 39.4785C33.1246 36.6051 31.9303 35.272 29.8246 35.4793C28.7937 35.5808 27.9171 35.8997 27.1947 36.4359C26.4921 36.948 26.0152 37.6151 25.7639 38.4371L26.9203 50.1831L22.1166 50.656L19.671 25.8151ZM48.7616 29.1634C51.1524 28.928 53.2393 29.542 55.0223 31.0054C56.825 32.4447 57.8743 34.6668 58.1702 37.6718C58.235 38.3299 58.2627 38.8365 58.2534 39.1918L45.1584 40.481C45.4965 41.6658 46.118 42.5791 47.0228 43.2209C47.9473 43.8386 48.9908 44.0902 50.1534 43.9757C51.8862 43.8051 53.1299 42.9408 53.8846 41.3826L58.2014 43.0505C57.5039 44.5145 56.4921 45.7104 55.1661 46.6382C53.84 47.5661 52.3105 48.1153 50.5777 48.2859C47.9017 48.5493 45.5758 47.8703 43.6001 46.2487C41.6244 44.6272 40.4994 42.4235 40.2252 39.6378C39.9509 36.8521 40.6366 34.4813 42.2823 32.5254C43.9258 30.5475 46.0855 29.4269 48.7616 29.1634ZM49.1169 33.4471C48.1737 33.54 47.3441 33.8874 46.6282 34.4894C45.9102 35.0695 45.409 35.8276 45.1247 36.7636L53.1527 35.9732C53.0858 35.2933 52.7259 34.6753 52.0733 34.1195C51.4403 33.5395 50.4549 33.3154 49.1169 33.4471ZM68.6075 22.6584C68.6075 22.6584 70.8777 22.4349 75.4182 21.9879C81.1431 21.4242 84.2236 23.3578 84.6599 27.7886C84.7635 28.8415 84.5701 29.8018 84.0797 30.6695C83.5872 31.5153 83.0051 32.1263 82.3334 32.5025C83.3485 32.6904 84.2393 33.1896 85.0056 34.0001C85.7917 34.7864 86.2463 35.8047 86.3694 37.055C86.594 39.3362 86.0451 41.1842 84.7226 42.5989C83.398 43.9917 81.0578 44.8533 77.7018 45.1837L70.8911 45.8542L68.6075 22.6584ZM74.151 26.6638L74.598 31.2043L76.3089 31.0359C77.7347 30.8955 78.7285 30.6426 79.2905 30.2772C79.8745 29.9097 80.1179 29.2324 80.0207 28.2453C79.9322 27.346 79.5788 26.7939 78.9607 26.589C78.3425 26.3841 77.3096 26.3529 75.8619 26.4954L74.151 26.6638ZM75.045 35.7448L75.5471 40.8446L77.258 40.6761C78.8592 40.5185 80.0352 40.2034 80.786 39.7308C81.5368 39.2583 81.8625 38.5175 81.7632 37.5085C81.6681 36.5434 81.1888 35.9483 80.325 35.7233C79.481 35.4741 78.2913 35.4252 76.7559 35.5763L75.045 35.7448ZM87.244 25.7735L92.0476 25.3006L93.0324 35.3028C93.3152 38.1762 94.5095 39.5093 96.6153 39.3019C97.6462 39.2005 98.5129 38.8937 99.2155 38.3815C99.9379 37.8453 100.425 37.1662 100.676 36.3442L99.5164 24.5653L104.32 24.0924L106.121 42.3858L101.317 42.8587L101.074 40.3911C100.461 41.3595 99.6319 42.1609 98.587 42.7953C97.5399 43.4078 96.479 43.7669 95.4042 43.8728C93.7372 44.0369 92.2082 43.5784 90.8172 42.4972C89.4241 41.3941 88.6282 39.8336 88.4295 37.8156L88.4165 37.684L87.244 25.7735ZM122.362 35.3388C122.552 37.269 122.037 38.7924 120.818 39.9091C119.619 41.0016 117.846 41.6634 115.499 41.8944C114.183 42.024 112.883 41.9749 111.598 41.747C110.335 41.517 109.401 41.2546 108.796 40.9597L107.889 40.5175L109.5 36.6382C109.686 36.7306 109.954 36.8593 110.302 37.0243C110.649 37.1674 111.308 37.346 112.282 37.5603C113.253 37.7526 114.188 37.8044 115.088 37.7159C116.184 37.6079 116.905 37.393 117.25 37.0712C117.617 36.7471 117.776 36.3438 117.729 35.8613C117.681 35.3787 117.301 35.0064 116.589 34.7443C115.896 34.4582 115.054 34.22 114.06 34.0299C113.089 33.8376 112.103 33.6025 111.101 33.3246C110.121 33.0446 109.254 32.5652 108.501 31.8863C107.769 31.2053 107.351 30.3274 107.245 29.2526C107.063 27.4101 107.614 25.9164 108.897 24.7713C110.179 23.6263 111.786 22.9588 113.716 22.7687C114.9 22.6521 116.059 22.7263 117.193 22.9912C118.346 23.232 119.193 23.514 119.734 23.8373L120.543 24.2892L119.017 28.0272C118.853 27.9327 118.632 27.8216 118.353 27.6939C118.073 27.5444 117.502 27.3681 116.64 27.165C115.779 26.9619 114.942 26.9003 114.13 26.9802C112.551 27.1357 111.807 27.674 111.898 28.5953C111.934 28.9682 112.297 29.2758 112.985 29.5181C113.693 29.7363 114.533 29.9415 115.504 30.1338C116.497 30.3239 117.486 30.581 118.47 30.9049C119.452 31.2068 120.312 31.7312 121.05 32.478C121.81 33.2226 122.247 34.1762 122.362 35.3388ZM123.201 16.1542C123.638 15.6461 124.23 15.3553 124.975 15.2819C125.721 15.2084 126.358 15.3783 126.886 15.7914C127.414 16.2045 127.717 16.8059 127.794 17.5955C127.872 18.3852 127.692 19.0341 127.255 19.5422C126.818 20.0503 126.226 20.3411 125.481 20.4145C124.735 20.488 124.098 20.3181 123.57 19.905C123.042 19.4919 122.739 18.8905 122.662 18.1009C122.584 17.3112 122.764 16.6623 123.201 16.1542ZM123.234 22.2303L128.038 21.7574L129.839 40.0508L125.035 40.5237L123.234 22.2303ZM141.372 20.046C143.039 19.8819 144.569 20.3514 145.962 21.4545C147.377 22.5554 148.184 24.1149 148.383 26.1328L148.389 26.1986L149.562 38.1091L144.758 38.582L143.777 28.6128C143.494 25.7393 142.299 24.4063 140.194 24.6136C139.163 24.7151 138.286 25.0339 137.564 25.5701C136.861 26.0823 136.384 26.7493 136.133 27.5714L137.289 39.3173L132.486 39.7903L130.685 21.4968L135.488 21.0239L135.735 23.5244C136.348 22.556 137.167 21.7666 138.192 21.1563C139.237 20.5219 140.297 20.1518 141.372 20.046ZM159.131 18.2977C161.522 18.0623 163.608 18.6763 165.391 20.1397C167.194 21.5789 168.243 23.8011 168.539 26.8061C168.604 27.4641 168.632 27.9708 168.622 28.3261L155.528 29.6153C155.866 30.8001 156.487 31.7134 157.392 32.3551C158.316 32.9728 159.36 33.2245 160.522 33.11C162.255 32.9394 163.499 32.075 164.254 30.5169L168.571 32.1848C167.873 33.6487 166.861 34.8446 165.535 35.7725C164.209 36.7003 162.68 37.2496 160.947 37.4202C158.271 37.6836 155.945 37.0045 153.969 35.383C151.994 33.7614 150.869 31.5578 150.594 28.7721C150.32 25.9864 151.006 23.6156 152.651 21.6597C154.295 19.6818 156.455 18.5611 159.131 18.2977ZM159.486 22.5814C158.543 22.6743 157.713 23.0217 156.997 23.6237C156.279 24.2038 155.778 24.9618 155.494 25.8979L163.522 25.1075C163.455 24.4275 163.095 23.8096 162.442 23.2538C161.809 22.6738 160.824 22.4497 159.486 22.5814ZM185.177 29.1546C185.367 31.0849 184.853 32.6083 183.634 33.7249C182.435 34.8175 180.662 35.4792 178.315 35.7103C176.999 35.8399 175.698 35.7907 174.413 35.5629C173.15 35.3328 172.217 35.0704 171.612 34.7756L170.704 34.3334L172.316 30.454C172.502 30.5464 172.769 30.6751 173.118 30.8402C173.464 30.9832 174.124 31.1619 175.097 31.3761C176.069 31.5684 177.004 31.6203 177.903 31.5318C179 31.4238 179.721 31.2089 180.066 30.887C180.432 30.563 180.592 30.1597 180.544 29.6771C180.497 29.1946 180.117 28.8223 179.405 28.5602C178.712 28.274 177.869 28.0359 176.876 27.8457C175.905 27.6534 174.918 27.4184 173.916 27.1405C172.936 26.8605 172.07 26.381 171.316 25.7022C170.585 25.0212 170.166 24.1433 170.06 23.0685C169.879 21.226 170.43 19.7322 171.712 18.5872C172.995 17.4422 174.601 16.7746 176.531 16.5846C177.716 16.468 178.875 16.5421 180.008 16.8071C181.161 17.0479 182.009 17.3299 182.55 17.6531L183.358 18.105L181.833 21.8431C181.669 21.7485 181.447 21.6374 181.169 21.5098C180.888 21.3602 180.317 21.1839 179.456 20.9808C178.594 20.7777 177.758 20.7161 176.946 20.796C175.367 20.9515 174.622 21.4899 174.713 22.4111C174.75 22.784 175.112 23.0916 175.801 23.3339C176.509 23.5521 177.348 23.7574 178.32 23.9497C179.313 24.1398 180.301 24.3968 181.286 24.7207C182.268 25.0227 183.128 25.5471 183.866 26.2939C184.626 27.0385 185.063 27.9921 185.177 29.1546ZM201.467 27.5509C201.657 29.4811 201.143 31.0045 199.924 32.1212C198.725 33.2137 196.952 33.8755 194.605 34.1065C193.289 34.2361 191.988 34.187 190.704 33.9591C189.441 33.7291 188.507 33.4667 187.902 33.1718L186.995 32.7296L188.606 28.8503C188.792 28.9427 189.06 29.0714 189.408 29.2364C189.754 29.3795 190.414 29.5581 191.388 29.7724C192.359 29.9647 193.294 30.0165 194.194 29.928C195.29 29.82 196.011 29.6051 196.356 29.2833C196.723 28.9592 196.882 28.5559 196.835 28.0734C196.787 27.5908 196.407 27.2185 195.695 26.9564C195.002 26.6703 194.159 26.4321 193.166 26.242C192.195 26.0497 191.208 25.8146 190.207 25.5367C189.227 25.2567 188.36 24.7773 187.607 24.0984C186.875 23.4174 186.457 22.5395 186.351 21.4647C186.169 19.6222 186.72 18.1285 188.003 16.9834C189.285 15.8384 190.891 15.1709 192.822 14.9808C194.006 14.8642 195.165 14.9384 196.299 15.2033C197.452 15.4441 198.299 15.7261 198.84 16.0494L199.649 16.5013L198.123 20.2393C197.959 20.1448 197.737 20.0337 197.459 19.906C197.179 19.7565 196.608 19.5802 195.746 19.3771C194.884 19.174 194.048 19.1124 193.236 19.1923C191.657 19.3478 190.913 19.8861 191.003 20.8074C191.04 21.1803 191.403 21.4879 192.091 21.7302C192.799 21.9484 193.639 22.1536 194.61 22.3459C195.603 22.536 196.592 22.7931 197.576 23.117C198.558 23.4189 199.418 23.9433 200.156 24.6901C200.916 25.4347 201.353 26.3883 201.467 27.5509ZM214.711 11.2645C216.748 8.78277 219.455 7.37565 222.833 7.0431C226.211 6.71055 229.13 7.56377 231.59 9.60277C234.072 11.6396 235.485 14.4128 235.831 17.9223C236.083 20.4887 235.679 22.7985 234.619 24.8519L236.643 26.513L233.38 30.4885L231.317 28.7648C229.521 30.0933 227.482 30.8698 225.201 31.0944C221.823 31.4269 218.894 30.5858 216.415 28.5709C213.933 26.534 212.52 23.7608 212.174 20.2513C211.829 16.7418 212.674 13.7461 214.711 11.2645ZM228.399 13.6376C226.978 12.4709 225.291 11.9836 223.339 12.1758C221.386 12.368 219.827 13.1749 218.66 14.5964C217.515 16.0158 217.042 17.7345 217.241 19.7525C217.44 21.7704 218.239 23.3639 219.638 24.5328C221.06 25.6995 222.747 26.1868 224.699 25.9946C225.511 25.9147 226.308 25.6922 227.092 25.3272L224.887 23.5177L228.183 19.539L230.499 21.4703C230.823 20.4861 230.933 19.4675 230.83 18.4147C230.631 16.3967 229.821 14.8043 228.399 13.6376ZM237.134 11.017L241.938 10.5441L242.922 20.5462C243.205 23.4197 244.399 24.7527 246.505 24.5454C247.536 24.4439 248.403 24.1371 249.105 23.625C249.828 23.0888 250.315 22.4097 250.566 21.5877L249.406 9.80878L254.21 9.33586L256.011 27.6293L251.207 28.1022L250.964 25.6346C250.351 26.603 249.522 27.4044 248.477 28.0388C247.43 28.6513 246.369 29.0104 245.294 29.1162C243.627 29.2804 242.098 28.8218 240.707 27.7407C239.314 26.6376 238.518 25.0771 238.319 23.0591L238.306 22.9275L237.134 11.017ZM256.8 3.00143C257.238 2.4933 257.829 2.20252 258.575 2.1291C259.321 2.05568 259.958 2.22553 260.485 2.63865C261.013 3.05176 261.316 3.65315 261.394 4.44279C261.472 5.23244 261.292 5.88133 260.855 6.38946C260.418 6.89759 259.826 7.18837 259.08 7.26179C258.334 7.33521 257.698 7.16537 257.17 6.75225C256.642 6.33913 256.339 5.73775 256.261 4.9481C256.184 4.15845 256.363 3.50956 256.8 3.00143ZM256.834 9.07754L261.638 8.60462L263.439 26.8981L258.635 27.371L256.834 9.07754ZM264.745 8.2987L280.373 6.7601L280.675 9.81998L272.297 21.5743L282.234 20.5961L282.668 25.005L266.085 26.6375L265.784 23.5776L274.063 11.833L265.179 12.7076L264.745 8.2987Z" fill="#FFF9F0"/>
</svg>
