<svg width="366" height="223" viewBox="0 0 366 223" fill="none" xmlns="http://www.w3.org/2000/svg">
<path d="M81.9795 101.48L65.8806 103.004L62.0988 94.2562L39.983 96.3505L37.9106 105.653L21.8116 107.177L36.6563 47.3612L56.1702 45.5132L81.9795 101.48ZM57.219 82.5768L47.7376 60.4222L42.5836 83.9627L57.219 82.5768ZM141.679 95.8261L125.092 97.3969L100.951 64.243L104.277 99.368L89.3163 100.785L83.834 42.8935L100.421 41.3227L124.562 74.4766L121.236 39.3516L136.196 37.9348L141.679 95.8261ZM180.637 92.1368L164.863 93.6306L160.597 48.5859L143.929 50.1644L142.712 37.3177L191.822 32.667L193.039 45.5137L176.371 47.0921L180.637 92.1368ZM254.235 85.167L238.136 86.6916L234.354 77.9436L212.238 80.038L210.166 89.3404L194.067 90.8649L208.912 31.0487L228.426 29.2007L254.235 85.167ZM229.474 66.2642L219.993 44.1097L214.839 67.6502L229.474 66.2642ZM313.934 79.5135L298.16 81.0073L296.004 58.2411L275.19 60.2122L277.346 82.9785L261.572 84.4722L256.089 26.5809L271.863 25.0872L273.911 46.7151L294.726 44.7439L292.678 23.116L308.452 21.6222L313.934 79.5135ZM65.718 159.559C66.873 171.755 59.3384 179.688 45.3535 181.012L34.3769 182.052L36.1941 201.24L20.4203 202.734L14.938 144.843L41.6883 142.31C55.6733 140.985 64.563 147.363 65.718 159.559ZM49.9442 161.053C49.4206 155.524 46.1307 153.702 40.3579 154.249L31.8205 155.058L33.2681 170.343L41.8054 169.535C47.5783 168.988 50.4678 166.582 49.9442 161.053ZM121.75 151.874C122.435 159.11 119.141 164.18 112.578 166.771C119.287 167.448 122.815 171.79 123.416 178.132L124.255 186.994C124.486 189.434 125.004 191.436 125.623 192.772L110.337 194.219C109.459 192.744 108.72 191.009 108.481 188.488L107.704 180.276C107.08 173.69 103.41 173.053 98.8569 173.484L90.4009 174.285L92.449 195.913L76.6753 197.407L71.193 139.516L99.5695 136.828C112.741 135.581 120.772 141.548 121.75 151.874ZM106.084 154.506C105.699 150.44 103.199 148.298 98.7269 148.722L88.0755 149.73L89.2921 162.577L99.9434 161.568C104.415 161.145 106.469 158.571 106.084 154.506ZM178.769 187.739L133.724 192.004L128.242 134.113L173.287 129.847L174.503 142.694L145.232 145.466L146.133 154.979L172.802 152.453L173.942 164.487L147.273 167.013L148.281 177.664L177.552 174.892L178.769 187.739ZM231.481 141.482C232.166 148.719 228.872 153.789 222.309 156.379C229.018 157.056 232.546 161.398 233.147 167.74L233.986 176.603C234.217 179.042 234.735 181.044 235.354 182.38L220.068 183.828C219.19 182.352 218.451 180.617 218.212 178.097L217.435 169.885C216.811 163.299 213.141 162.662 208.588 163.093L200.132 163.894L202.18 185.522L186.406 187.015L180.924 129.124L209.3 126.437C222.472 125.19 230.503 131.156 231.481 141.482ZM215.815 144.114C215.43 140.049 212.93 137.907 208.458 138.33L197.806 139.339L199.023 152.185L209.674 151.177C214.146 150.753 216.2 148.18 215.815 144.114ZM295.818 176.654L279.231 178.225L255.09 145.071L258.416 180.196L243.455 181.613L237.973 123.722L254.56 122.151L278.701 155.305L275.375 120.18L290.335 118.763L295.818 176.654ZM363.315 170.262L347.216 171.787L343.434 163.039L321.318 165.133L319.246 174.436L303.147 175.96L317.991 116.144L337.505 114.296L363.315 170.262ZM338.554 151.359L329.073 129.205L323.919 152.745L338.554 151.359Z" fill="#FFF9F0"/>
<line x1="86.5998" y1="111.926" x2="147.77" y2="106.133" stroke="#FDD442" stroke-width="5.97272"/>
<line x1="241.04" y1="193.289" x2="302.211" y2="187.496" stroke="#FDD442" stroke-width="5.97272"/>
</svg>
