<svg width="1085" height="503" viewBox="0 0 1085 503" fill="none" xmlns="http://www.w3.org/2000/svg">
<path d="M1226.3 86.6191L1151.85 221.732L1032.59 141.767" stroke="#1D1D1D" stroke-width="8.72658"/>
<path d="M1086.36 119.708L1070.51 81.7935L1076.02 66.6277L1198.73 59.0449" stroke="#1D1D1D" stroke-width="8.72658"/>
<path d="M1063.61 263.782L1133.24 150.039" stroke="#1D1D1D" stroke-width="8.72658"/>
<path d="M1056.42 -95.9863L1100.06 -59.8878L1067.13 15.0853" stroke="#1D1D1D" stroke-width="8.72658"/>
<path d="M1104.88 28.4292L1004.39 -8.06609L1012.18 -35.8027" stroke="#1D1D1D" stroke-width="8.72658"/>
<path d="M460.852 -119.168L386.402 15.9454L267.144 -64.0198" stroke="#1D1D1D" stroke-width="8.72658"/>
<path d="M298.165 57.9954L367.79 -55.748" stroke="#1D1D1D" stroke-width="8.72658"/>
<path d="M765.495 356.099L788.243 371.265L810.992 325.767L755.155 298.193L723.444 361.614L835.809 472.6L870.966 429.17L835.809 393.324L859.936 349.205L905.434 379.537L895.783 398.15" stroke="#1D1D1D" stroke-width="8.72658"/>
<path d="M817.196 455.365L742.746 590.479L623.488 510.513" stroke="#1D1D1D" stroke-width="8.72658"/>
<path d="M677.257 488.454L661.402 450.54L666.917 435.374L789.622 427.791" stroke="#1D1D1D" stroke-width="8.72658"/>
<path d="M746.882 479.492L789.622 503.62" stroke="#1D1D1D" stroke-width="8.72658"/>
<path d="M871.02 429.529L931.314 467.797L900.503 529.42L877.394 518.162" stroke="#1D1D1D" stroke-width="8.72658"/>
<path d="M647.32 272.76L690.956 308.858L658.031 383.831" stroke="#1D1D1D" stroke-width="8.72658"/>
<path d="M695.773 397.175L595.289 360.68L603.074 332.943" stroke="#1D1D1D" stroke-width="8.72658"/>
<path d="M640.986 323.836L675.349 343.165" stroke="#1D1D1D" stroke-width="8.72658"/>
<path d="M0.0466404 150.31L22.7952 165.476L45.5439 119.978L-10.2937 92.4043L-42.0039 155.825L70.3607 266.811L105.518 223.381L70.3607 187.535L94.4881 143.416L139.985 173.748L130.334 192.36" stroke="#1D1D1D" stroke-width="8.72658"/>
<path d="M51.7483 249.576L-22.7018 384.69L-141.96 304.724" stroke="#1D1D1D" stroke-width="8.72658"/>
<path d="M-88.1903 282.665L-104.045 244.751L-98.5306 229.585L24.1743 222.002" stroke="#1D1D1D" stroke-width="8.72658"/>
<path d="M-18.5654 273.703L24.1746 297.831" stroke="#1D1D1D" stroke-width="8.72658"/>
<path d="M40.0293 335.056L13.1445 319.891" stroke="#1D1D1D" stroke-width="8.72658"/>
<path d="M105.572 223.74L165.867 262.008L135.055 323.631L111.946 312.373" stroke="#1D1D1D" stroke-width="8.72658"/>
<path d="M589.79 55.1889L612.538 70.3547L635.287 24.8573L579.449 -2.7168L547.739 60.7036L660.104 171.69L695.261 128.26L660.104 92.4139L684.231 48.2953L729.729 78.6268L720.078 97.2394" stroke="#1D1D1D" stroke-width="8.72658"/>
<path d="M641.491 154.457L567.041 289.57L447.783 209.605" stroke="#1D1D1D" stroke-width="8.72658"/>
<path d="M501.552 187.544L485.697 149.629L491.212 134.464L613.917 126.881" stroke="#1D1D1D" stroke-width="8.72658"/>
<path d="M478.804 331.618L548.428 217.875" stroke="#1D1D1D" stroke-width="8.72658"/>
<path d="M571.177 178.584L613.917 202.712" stroke="#1D1D1D" stroke-width="8.72658"/>
<path d="M629.772 239.935L602.888 224.77" stroke="#1D1D1D" stroke-width="8.72658"/>
<path d="M695.314 128.619L755.609 166.887L724.798 228.51L701.689 217.252" stroke="#1D1D1D" stroke-width="8.72658"/>
<path d="M471.615 -28.1504L515.25 7.94817L482.325 82.9213" stroke="#1D1D1D" stroke-width="8.72658"/>
<path d="M520.068 96.2651L419.583 59.7698L427.369 32.0332" stroke="#1D1D1D" stroke-width="8.72658"/>
<path d="M465.281 22.9258L499.643 42.2551" stroke="#1D1D1D" stroke-width="8.72658"/>
<path d="M180.685 423.933L203.434 439.099L226.183 393.601L170.345 366.027L138.635 429.448L250.999 540.434L286.156 497.004L250.999 461.158L275.127 417.039L320.624 447.371L310.973 465.984" stroke="#1D1D1D" stroke-width="8.72658"/>
<path d="M92.4478 556.288L76.5928 518.374L82.1075 503.208L204.812 495.625" stroke="#1D1D1D" stroke-width="8.72658"/>
<path d="M286.21 497.363L346.505 535.631L315.693 597.254L292.584 585.996" stroke="#1D1D1D" stroke-width="8.72658"/>
<path d="M62.5103 340.594L106.146 376.692L73.2207 451.665" stroke="#1D1D1D" stroke-width="8.72658"/>
<path d="M110.963 465.009L10.479 428.514L18.2647 400.777" stroke="#1D1D1D" stroke-width="8.72658"/>
<path d="M56.1758 391.67L90.5385 410.999" stroke="#1D1D1D" stroke-width="8.72658"/>
<path d="M894.732 42.1586L917.012 58.0054L941.126 13.2167L886.148 -16.0333L852.534 46.3992L961.491 160.732L997.946 118.386L963.889 81.4929L989.339 38.124L1033.9 69.8175L1023.69 88.1297" stroke="#1D1D1D" stroke-width="8.72658"/>
<path d="M943.408 142.944L864.906 275.744L748.121 192.209" stroke="#1D1D1D" stroke-width="8.72658"/>
<path d="M802.533 171.785L787.832 133.408L793.803 118.416L916.681 114.547" stroke="#1D1D1D" stroke-width="8.72658"/>
<path d="M775.438 315.105L848.471 203.519" stroke="#1D1D1D" stroke-width="8.72658"/>
<path d="M872.397 164.934L914.388 190.343" stroke="#1D1D1D" stroke-width="8.72658"/>
<path d="M929.11 228.029L902.696 212.057" stroke="#1D1D1D" stroke-width="8.72658"/>
<path d="M997.988 118.746L1057.1 158.82L1024.44 219.483L1001.68 207.531" stroke="#1D1D1D" stroke-width="8.72658"/>
<path d="M779.132 -44.7168L821.656 -7.31524L786.479 66.6279" stroke="#1D1D1D" stroke-width="8.72658"/>
<path d="M823.8 81.1083L724.465 41.5911L733.086 14.1026" stroke="#1D1D1D" stroke-width="8.72658"/>
<path d="M771.256 6.14453L805.018 26.5041" stroke="#1D1D1D" stroke-width="8.72658"/>
<path d="M177.961 -62.8455L99.4587 69.9547L-17.3268 -13.5802" stroke="#1D1D1D" stroke-width="8.72658"/>
<path d="M9.99063 109.318L83.0229 -2.26764" stroke="#1D1D1D" stroke-width="8.72658"/>
<path d="M163.662 22.2414L137.249 6.26953" stroke="#1D1D1D" stroke-width="8.72658"/>
<path d="M232.541 -87.041L291.651 -46.9674L258.99 13.696L236.232 1.74421" stroke="#1D1D1D" stroke-width="8.72658"/>
<path d="M485.628 410.903L507.907 426.75L532.022 381.961L477.043 352.711L443.43 415.143L552.387 529.476L588.841 487.13L554.784 450.237L580.235 406.868L624.794 438.562L614.585 456.874" stroke="#1D1D1D" stroke-width="8.72658"/>
<path d="M393.429 540.529L378.728 502.152L384.698 487.16L507.577 483.291" stroke="#1D1D1D" stroke-width="8.72658"/>
<path d="M588.884 487.49L647.994 527.564L615.333 588.227L592.575 576.275" stroke="#1D1D1D" stroke-width="8.72658"/>
<path d="M370.028 324.027L412.552 361.429L377.375 435.372" stroke="#1D1D1D" stroke-width="8.72658"/>
<path d="M414.696 449.852L315.361 410.335L323.982 382.847" stroke="#1D1D1D" stroke-width="8.72658"/>
<path d="M362.152 374.889L395.914 395.248" stroke="#1D1D1D" stroke-width="8.72658"/>
<path d="M1075.37 315.782L1097.65 331.628L1121.76 286.84L1066.79 257.59L1033.17 320.022L1142.13 434.355L1178.58 392.009L1144.53 355.116L1169.98 311.747L1214.54 343.441L1204.33 361.753" stroke="#1D1D1D" stroke-width="8.72658"/>
<path d="M1124.05 416.567L1045.54 549.367L928.759 465.832" stroke="#1D1D1D" stroke-width="8.72658"/>
<path d="M983.171 445.408L968.47 407.031L974.441 392.039L1097.32 388.17" stroke="#1D1D1D" stroke-width="8.72658"/>
<path d="M958.63 586.167L1029.11 477.142" stroke="#1D1D1D" stroke-width="8.72658"/>
<path d="M1053.04 438.555L1095.03 463.964" stroke="#1D1D1D" stroke-width="8.72658"/>
<path d="M1109.75 501.652L1083.33 485.68" stroke="#1D1D1D" stroke-width="8.72658"/>
<path d="M959.77 228.906L1002.29 266.308L967.116 340.251" stroke="#1D1D1D" stroke-width="8.72658"/>
<path d="M1004.44 354.729L905.104 315.212L913.725 287.724" stroke="#1D1D1D" stroke-width="8.72658"/>
<path d="M951.894 279.768L985.657 300.127" stroke="#1D1D1D" stroke-width="8.72658"/>
<path d="M309.923 109.993L332.202 125.839L356.317 81.0506L301.338 51.8007L267.725 114.233L376.682 228.566L413.136 186.22L379.079 149.327L404.53 105.958L449.089 137.651L438.88 155.964" stroke="#1D1D1D" stroke-width="8.72658"/>
<path d="M358.599 210.778L280.097 343.578L163.311 260.043" stroke="#1D1D1D" stroke-width="8.72658"/>
<path d="M217.723 239.619L203.022 201.242L208.993 186.25L331.871 182.381" stroke="#1D1D1D" stroke-width="8.72658"/>
<path d="M193.182 380.38L263.661 271.355" stroke="#1D1D1D" stroke-width="8.72658"/>
<path d="M287.587 232.768L329.578 258.177" stroke="#1D1D1D" stroke-width="8.72658"/>
<path d="M344.301 295.863L317.887 279.891" stroke="#1D1D1D" stroke-width="8.72658"/>
<path d="M413.179 186.58L472.289 226.654L439.628 287.317L416.87 275.365" stroke="#1D1D1D" stroke-width="8.72658"/>
<path d="M194.322 23.1172L236.846 60.5187L201.669 134.462" stroke="#1D1D1D" stroke-width="8.72658"/>
<path d="M238.991 148.94L139.656 109.423L148.277 81.9347" stroke="#1D1D1D" stroke-width="8.72658"/>
<path d="M186.446 73.9785L220.209 94.3381" stroke="#1D1D1D" stroke-width="8.72658"/>
<path d="M-99.1787 478.739L-76.8992 494.585L-52.785 449.797L-107.763 420.547L-141.377 482.979L-32.4197 597.312L4.03452 554.966L-30.0225 518.073L-4.572 474.704L39.9873 506.398L29.778 524.71" stroke="#1D1D1D" stroke-width="8.72658"/>
<path d="M633.194 24.2207L706.226 -87.3653" stroke="#1D1D1D" stroke-width="8.72658"/>
</svg>
