<svg width="492" height="7" viewBox="0 0 492 7" fill="none" xmlns="http://www.w3.org/2000/svg">
<path d="M38.0682 6.64108C38.3726 6.63259 39.5971 6.65324 40.1271 6.64966C39.5263 6.73945 36.9702 6.67191 38.0682 6.64108ZM92.4392 0.120703C91.9994 0.142902 91.5596 0.165101 91.1198 0.1873C92.3696 0.201725 94.0496 0.185431 95.2094 0.206503C95.399 0.210042 94.9069 0.274316 95.3558 0.277186C95.8048 0.280038 95.7182 0.192201 96.3711 0.182806C97.1036 0.172534 100.457 0.233728 101.619 0.232243C105.963 0.226314 110.344 0.176152 114.696 0.212632C110.203 0.277616 114.731 0.343754 115.989 0.315591C116.268 0.309071 116.224 0.145776 120.732 0.186892C123.597 0.212984 120.951 0.446436 125.732 0.329483C122.055 0.166166 125.671 0.177612 128.553 0.172183C129.049 0.171221 133.062 0.195759 134.834 0.188526C135.441 0.186011 136.365 0.100477 137.169 0.098232C137.723 0.0967512 138.141 0.143513 138.963 0.141132C142.795 0.130592 146.564 0.126956 150.402 0.142766C148.159 0.362569 152.163 0.236443 152.343 0.246952C153.258 0.30663 149.121 0.323617 150.757 0.360943C153.043 0.354133 155.329 0.347324 157.615 0.340514C155.739 0.313527 160.099 0.15542 160.901 0.22734C160.548 0.0331147 171.32 0.396387 172.96 0.331526C173.301 0.317825 171.066 0.221832 176.252 0.265746C176.813 0.270625 176.601 0.329226 176.895 0.323763C177.072 0.320478 178.139 0.134225 179.277 0.237146C179.693 0.274711 177.035 0.397038 182.871 0.347868C180.547 0.1583 190.964 0.245205 192.88 0.292711C192.497 0.267244 192.114 0.241776 191.731 0.216309C193.626 0.285011 193.968 0.220559 194.395 0.224072C196.115 0.23818 198.479 0.303133 200.081 0.297206C201.956 0.290386 201.963 0.172493 204.148 0.218352C203.63 0.192339 203.111 0.166327 202.593 0.140315C204.102 0.14658 205.612 0.152844 207.121 0.159109C203.626 0.315168 207.875 0.166554 208.155 0.163195C208.602 0.157515 207.96 0.221405 208.707 0.213449C208.784 0.212139 208.673 0.151975 209.824 0.145218C212.229 0.131305 211.849 0.20695 212.859 0.206095C212.951 0.205705 212.627 0.151503 214.371 0.13868C219.915 0.0978601 214.344 0.180217 214.131 0.187709C213.852 0.19759 215.753 0.4241 211.044 0.343783C212.625 0.369352 212.784 0.469585 212.962 0.472074C213.119 0.474119 215.859 0.460001 216.01 0.456548C217.356 0.422511 216.172 0.354014 216.434 0.34174C216.649 0.331845 219.949 0.421108 220.722 0.215083C222.302 0.405117 219.814 0.387707 217.166 0.416917C216.78 0.455913 219.688 0.493832 219.84 0.493728C223.591 0.493381 221.515 0.337067 222.335 0.237146C222.765 0.184865 224.294 0.291508 222.883 0.151346C226.287 0.136551 224.222 0.217772 224.442 0.229792C224.774 0.247452 225.965 0.207281 226.115 0.212632C226.333 0.220553 225.573 0.269081 226.435 0.286174C226.579 0.28866 227.969 0.205152 226.176 0.165238C228.572 0.177109 228.374 0.105902 229.187 0.249403C230.837 -0.0220835 230.384 0.409876 231.034 0.425088C232.761 0.465187 232.26 0.252034 232.351 0.24164C232.98 0.175031 237.762 0.248254 238.946 0.217535C238.479 0.371059 235.155 0.219211 234.412 0.248995C231.934 0.348084 237.904 0.325751 236.105 0.518651C236.859 0.465673 237.614 0.412695 238.368 0.359717C239.751 0.483744 237.789 0.537825 241.512 0.492502C242.121 0.385451 238.88 0.509411 239.53 0.425088C239.913 0.3756 242.072 0.364971 242.114 0.33888C242.157 0.307473 240.206 0.344694 240.513 0.296389C241.185 0.192145 248.301 0.291385 242.884 0.348277C244.395 0.346495 245.173 0.553838 246.483 0.489234C247.331 0.4473 242.564 0.160937 249.715 0.213449C249.868 0.311357 246.856 0.242361 246.778 0.249812C246.668 0.260658 247.213 0.481597 247.307 0.492502C247.641 0.528407 254.944 0.410099 256.487 0.521102C255.876 0.393408 262.005 0.498316 262.673 0.459408C262.85 0.448666 262.186 0.370448 262.376 0.362168C263.561 0.312893 266.767 0.452522 268.254 0.45614C269.919 0.460239 269.708 0.392683 269.801 0.392811C270.533 0.39658 269.948 0.442377 270.396 0.442248C271.072 0.442029 275.72 0.451395 275.953 0.44184C276.021 0.438862 275.263 0.36169 276.276 0.347051C276.451 0.344515 276.34 0.436011 279.341 0.396488C282.954 0.348954 276.831 0.282708 278.333 0.186892C280.654 0.323319 280.579 0.188125 281.208 0.19874C281.426 0.202607 283.048 0.317552 284.81 0.31028C283.545 0.328938 282.281 0.347596 281.017 0.366254C282.26 0.386409 284.673 0.361462 285.697 0.384231C286.197 0.395315 285.785 0.489742 286.87 0.487191C287.101 0.486136 288.015 0.256082 285.172 0.359308C284.945 0.277164 286.297 0.330656 286.925 0.30742C287.02 0.303799 287.394 0.166567 288.195 0.251854C288.388 0.272838 286.293 0.673156 291.696 0.383414C291.87 0.374076 291.265 0.323941 291.435 0.313549C291.551 0.30651 292.93 0.32679 293.083 0.319677C293.238 0.312045 292.572 0.257313 292.758 0.246543C293.709 0.191047 294.958 0.408126 292.996 0.391586C293.652 0.418415 294.308 0.445244 294.963 0.472074C294.261 0.308469 295.993 0.426042 296.9 0.421003C302.714 0.388801 298.821 0.282394 299.82 0.22734C301.428 0.138945 300.2 0.418921 302.587 0.334794C302.808 0.326929 299.923 0.208083 305.556 0.275143C304.724 0.279773 303.893 0.284404 303.062 0.289034C303.541 0.447277 306.064 0.278179 306.258 0.27596C308.47 0.254232 306.974 0.311279 310.259 0.229792C310.552 0.222476 311.191 0.261529 311.819 0.242049C314.419 0.161793 308.388 0.193348 308.223 0.129283C308.145 0.0978923 314.631 0.105798 314.854 0.120703C315.799 0.186777 311.913 0.149806 312.654 0.231834C312.924 0.260961 322.169 0.20114 324.024 0.23306C326.164 0.270205 327.127 0.484752 327.141 0.243683C327.745 0.480313 328.278 0.318865 328.552 0.320494C331.862 0.342399 331.868 0.344787 334.706 0.322129C335.333 0.317204 335.862 0.389 336.084 0.376877C336.213 0.369555 335.972 0.292721 336.604 0.269014C337.482 0.236583 342.758 0.31561 343.15 0.358083C343.542 0.400556 340.922 0.376502 341.392 0.446334C343.288 0.453393 345.107 0.436115 347.016 0.443474C347.809 0.44674 347.402 0.495616 347.744 0.496588C347.89 0.497189 350.629 0.454148 350.513 0.43612C350.241 0.394197 341.785 0.422377 344.012 0.336837C344.441 0.320309 345.959 0.432939 345.718 0.29598C353.272 0.327031 360.827 0.358083 368.382 0.389134C364.041 0.491573 359.156 0.399958 354.61 0.409563C353.987 0.410748 351.88 0.397538 352.136 0.466762C356.002 0.484684 360.809 0.448616 364.521 0.493728C364.64 0.495221 364.204 0.557415 364.649 0.567271C365.481 0.585666 368.189 0.485358 368.645 0.511297C368.722 0.517339 367.181 0.59933 367.65 0.651436C368.853 0.785153 369.158 0.488993 370.193 0.492502C370.993 0.495342 376.369 0.638539 377.708 0.548068C379.131 0.451636 373.746 0.492084 374.144 0.41324C377.788 0.334006 381.477 0.418616 384.92 0.408746C384.981 0.408494 384.454 0.346708 385.222 0.338063C386.559 0.323018 386.91 0.410659 387.561 0.42468C388.263 0.439605 390.744 0.427045 391.076 0.459C391.118 0.46319 390.616 0.550118 390.539 0.552562C389.458 0.58839 389.074 0.475565 388.976 0.474117C388.606 0.469839 388.243 0.513053 387.906 0.510479C387.351 0.506188 387.045 0.466206 386.313 0.462677C385.807 0.460093 386.295 0.53687 385.808 0.533359C385.629 0.53176 383.7 0.356445 383.52 0.535402C383.464 0.591827 399.24 0.664286 400.817 0.619159C399.464 0.597641 398.112 0.576123 396.759 0.554605C399.506 0.606984 402.805 0.463996 403.039 0.675542C413.224 0.692838 423.41 0.710134 433.595 0.72743C435.414 0.745453 434.417 0.881394 437.409 0.84183C436.636 0.798522 435.862 0.755213 435.089 0.711905C436.623 0.742286 443.418 0.801641 444.518 0.773599C444.66 0.769923 444.858 0.646889 446.556 0.636319C448.063 0.626985 448.305 0.719169 449.111 0.736827C449.787 0.751397 450.546 0.727244 450.747 0.732333C450.901 0.736408 450.962 0.792778 451.333 0.802607C452.503 0.832999 451.555 0.674282 452.716 0.856539C452.433 0.863484 452.151 0.87043 451.868 0.877376C453.28 0.903754 455.209 0.986497 453.129 1.02732C452.771 1.03437 453.078 0.979833 452.812 0.979927C442.368 0.990061 450.708 1.09607 454.368 1.01139C455.308 1.09219 460.576 1.04286 460.751 1.05878C460.994 1.08185 460.093 1.14643 461.274 1.20219C461.523 1.21399 468.566 1.16875 466.03 1.27614C465.507 1.29829 462.13 1.27502 461.315 1.27818C463.231 1.44945 467.721 1.20407 468.226 1.21036C470.263 1.23705 464.313 1.35879 468.902 1.37869C472.43 1.39396 469.117 1.2796 470.474 1.23079C471.237 1.2034 475.23 1.32938 475.121 1.16623C476.492 1.14881 475.69 1.2352 475.859 1.24141C476.024 1.24687 478.719 1.19803 479.594 1.23242C479.7 1.2367 479.366 1.3215 479.475 1.32844C479.689 1.34032 482.288 1.32336 482.392 1.31618C482.458 1.31119 481.839 1.23695 482.094 1.21894C482.39 1.19818 484.891 1.21565 485.029 1.19443C485.224 1.16234 482.136 1.18348 482.651 1.10045C484.074 1.12136 486.392 1.06597 487.332 0.99913C487.102 1.01824 485.722 1.02098 485.243 1.01425C485.468 0.892654 488.431 0.89431 487.418 0.99055C488.062 0.938864 487.622 0.911444 487.985 0.862667C488.08 0.850311 488.995 0.847766 489.171 0.826713C489.194 0.822518 488.25 0.776641 488.439 0.751944C488.781 0.707316 491.555 0.717356 491.782 0.729064C492.42 0.762244 490.159 0.80239 489.971 0.853678C489.944 0.861555 491.867 0.962061 491.896 0.970938C492.009 1.06618 489.868 0.997542 490.113 1.08329C490.642 1.10141 491.172 1.11952 491.701 1.13763C489.659 1.22447 485.883 1.17982 484.909 1.27859C487.935 1.2492 491.103 1.25267 491.097 1.47511C491.094 1.56879 489.789 1.62371 489.839 1.64753C490.032 1.73276 491.844 1.64017 491.911 1.64467C491.966 1.64986 491.991 1.65492 491.991 1.65984C491.991 1.65985 491.991 1.65985 491.991 1.65985C491.991 1.70975 489.407 1.74568 489.278 1.76847C489.061 1.80894 490.211 1.97553 490.209 2.01238C490.169 2.01979 488.329 2.05921 488.95 2.12351C489.578 2.18847 491.188 2.1899 491.245 2.19665C491.552 2.2355 488.735 2.27094 488.651 2.29389C488.607 2.30549 490.12 2.37677 490.164 2.39726C490.202 2.41782 489.052 2.46269 488.599 2.52759C488.261 2.57581 489.244 2.61278 489.072 2.62034C488.948 2.62535 486.286 2.62452 486.155 2.633C485.96 2.64554 486.584 2.70317 486.493 2.71758C486.364 2.7383 485.504 2.7175 485.616 2.73882C485.7 2.75471 489.033 2.95337 489.011 3.00643C488.973 3.09694 485.444 2.8887 488.728 3.24586C488.751 3.2482 489.55 3.22282 489.573 3.22502C490.066 3.29073 487.503 3.39182 490.637 3.37415C484.808 3.48828 489.911 3.5102 489.049 3.6626C488.716 3.72117 486.456 3.74533 486.446 3.75412C486.665 3.82843 487.385 3.7708 487.63 3.80723C487.765 3.82759 485.743 3.90616 486.198 3.95718C486.433 3.98347 488.579 3.97411 488.668 3.97924C489.517 4.02761 488.476 4.07971 488.662 4.11407C488.786 4.1371 490.081 4.13893 490.115 4.14308C490.17 4.15171 488.411 4.24478 488.045 4.2775C487.766 4.30267 488.812 4.34211 488.617 4.35308C487.447 4.41871 484.956 4.25134 487.356 4.48587C487.503 4.50025 488.41 4.49444 488.437 4.49731C488.998 4.56379 487.327 4.56954 487.028 4.62396C486.514 4.71775 488.917 4.66546 486.919 4.73142C488.418 4.79275 489.253 4.79019 491.007 4.77309C486.151 4.82079 484.437 5.06357 489.828 5.05746C488.113 5.05367 488.303 5.1907 487.792 5.1931C487.473 5.19444 484.987 5.0582 486.127 5.36388C486.27 5.40207 487.78 5.35355 487.307 5.43171C483.682 5.41176 487.23 5.48144 487.234 5.49177C487.187 5.67183 478.329 5.52435 476.807 5.54488C475.04 5.5687 473.471 5.71058 473.087 5.71076C471.824 5.71082 472.872 5.63878 472.589 5.6123C472.303 5.58605 468.711 5.72406 468.532 5.71648C467.836 5.68604 468.542 5.60067 468.47 5.59636C467.608 5.54405 462.784 5.61089 461.434 5.59105C461.476 5.64643 464.187 5.65082 462.494 5.73977C460.523 5.84347 460.41 5.59934 460.358 5.5886C451.326 5.59091 442.293 5.59323 433.261 5.59554C433.374 5.72543 439.279 5.62748 439.413 5.64457C440.202 5.74582 430.226 5.74395 429.003 5.6981C429.932 5.72615 430.862 5.75421 431.791 5.78226C430.204 5.93158 426.691 5.73758 424.395 5.80351C423.653 5.82488 425.078 5.88251 425.048 5.88645C424.215 5.94444 422.877 5.89976 423.877 5.82189C421.842 5.8965 422.139 5.81418 420.578 5.808C420.497 5.80774 421.168 5.868 419.932 5.89298C419.353 5.90464 416.265 5.90483 415.852 5.95754C415.682 5.97973 417.248 6.2134 417.441 6.01229C420.8 6.11032 418.515 5.92064 419.819 5.92526C420.019 5.92631 419.559 6.03857 422.845 5.98573C422.219 6.18817 418.435 6.03679 417.787 6.06131C416.449 6.11172 421.961 6.21626 422.972 6.05845C422.5 6.21643 423.363 6.07974 424.592 6.08624C425.937 6.09328 425.351 6.14032 426.079 6.14058C428.069 6.14175 427.244 6.03024 428.884 6.13077C427.285 5.81956 431.693 6.08971 432.978 6.17122C430.888 6.18702 428.797 6.20282 426.707 6.21861C426.827 6.23496 426.946 6.2513 427.066 6.26764C426.515 6.26533 425.965 6.26301 425.414 6.2607C425.502 6.24503 425.591 6.22937 425.679 6.21371C422.84 6.31554 422.147 6.20109 421.916 6.19982C418.936 6.18654 415.494 6.18753 412.481 6.18715C412.029 6.1871 412.339 6.28896 409.045 6.20922C407.994 6.18382 408.986 6.10458 407.795 6.11647C406.305 6.3318 406.333 6.16005 405.89 6.15978C404.618 6.15981 403.841 6.21315 403.724 6.21371C402.153 6.22203 399.853 6.21313 398.127 6.22107C398.095 6.22188 398.993 6.28803 397.872 6.26846C397.478 6.26147 393.948 5.97907 390.862 6.07112C391.665 6.09019 392.467 6.10925 393.27 6.12832C392.326 6.10168 385.713 6.17285 387.33 6.24844C388.321 6.29464 390.741 6.11262 391.007 6.28766C388.806 6.23527 376.651 6.31363 375.705 6.27295C375.574 6.26715 376.38 6.21035 376.199 6.20309C376.059 6.19755 373.275 6.21101 372.905 6.1892C372.685 6.17624 373.915 6.14143 373.815 6.12097C373.728 6.10638 370.251 6.08206 370.052 6.15324C370.906 6.12467 373.306 6.14962 372.047 6.20963C371.885 6.21708 371.046 6.17116 370.85 6.18062C369.025 6.26784 374.478 6.2469 375.322 6.24762C371.897 6.33832 366.598 6.2314 362.629 6.29052C361.026 6.23127 365.007 6.19988 363.192 6.15079C359.428 6.04904 362.191 6.23273 362.074 6.24027C361.139 6.30005 357.954 5.97968 357.952 6.22352C356.588 6.18681 357.029 6.15607 355.103 6.18797C355.357 6.20486 355.61 6.22175 355.864 6.23863C353.725 6.37988 349.2 6.02353 349.539 5.99635C350.451 5.9236 352.808 6.03708 353.009 6.03435C353.307 6.03031 354.13 5.78288 357.391 6.00411C358.726 5.83816 352.223 5.89211 355.182 5.77899C353.184 5.79756 344.962 5.68205 343.779 5.75489C343.638 5.7644 344.295 5.92975 342.264 5.84559C341.3 5.80551 343.625 5.80359 343.184 5.76592C341.826 5.65031 323.361 5.72426 319.853 5.73037C319.626 5.73056 319.709 5.67924 319.485 5.67971C318.798 5.68114 316.294 5.75767 315.064 5.73405C317.612 5.82904 312.663 5.83643 311.404 5.82598C309.493 5.81006 309.611 5.71975 308.786 5.70055C305.604 5.62652 300.674 5.84093 298.203 5.64049C298.338 5.83943 293.927 5.54295 291.921 5.5412C290.349 5.53978 288.069 5.67143 290.19 5.75162C287.478 5.74246 284.622 5.77957 282.077 5.79166C281.656 5.79369 282.236 5.73486 281.518 5.74018C281.453 5.74109 281.363 5.79873 280.746 5.80473C275.659 5.85498 278.134 5.73247 277.182 5.69646C276.65 5.67629 276.257 5.66627 275.968 5.66296C278.934 5.65169 282.354 5.62905 283.269 5.62741C282.489 5.50011 276.696 5.65186 275 5.61761C274.941 5.61636 275.146 5.5462 275.086 5.5457C275.085 5.5457 275.083 5.5457 275.082 5.5457C274.446 5.54032 270.397 5.56622 271.231 5.64988C271.455 5.67224 273.318 5.67219 275.529 5.66459C274.931 5.68029 275.377 5.75889 275.272 5.76224C273.992 5.8011 270.855 5.72438 269.743 5.71403C269.488 5.71176 269.507 5.76212 269.465 5.76224C268.453 5.7508 268.868 5.60701 267.83 5.7553C265.998 5.57609 271.264 5.72869 270.893 5.6123C270.608 5.52269 258.911 5.57082 258.945 5.71199C258.905 5.69689 258.744 5.67815 258.414 5.65683C257.683 5.60946 254.427 5.62428 253.865 5.65029C253.77 5.65541 253.808 5.79244 253.69 5.7937C253.396 5.79685 249.417 5.68942 247.93 5.77041C248.733 5.78962 249.536 5.80882 250.338 5.82802C245.491 5.82921 246.24 5.86999 247.855 5.91096C247.936 5.91133 248.015 5.91653 248.092 5.91709C249.344 5.94738 250.948 5.97656 250.973 5.98736C251.065 6.02861 242.841 6.05156 244.423 5.92444C244.643 5.90707 248.448 5.96367 246.564 5.87296C246.235 5.85707 243.791 5.88296 243.663 5.87296C242.804 5.80649 248.14 5.71819 247.488 5.62374C246.193 5.71366 244.531 5.6663 243.045 5.68952C242.369 5.70001 242.203 5.76871 242.12 5.77C240.874 5.78794 241.573 5.71591 241.157 5.71771C240.934 5.71894 238.478 5.87225 238.942 5.66092C230.852 5.81638 236.704 5.81622 241.668 5.80432C240.099 5.88129 237.025 5.84406 235.645 5.86193C235.15 5.86842 235.443 5.93894 234.607 5.95304C232.886 5.98205 224.669 5.90105 222.528 5.88195C223.843 5.85704 223.458 5.78022 222.443 5.78553C221.429 5.79087 222.281 5.8934 222.083 5.90442C221.871 5.91583 217.11 5.86744 216.318 5.88073C219.902 5.84359 219.093 5.76699 216.051 5.75897C216.491 5.73691 216.931 5.71485 217.37 5.69278C215.587 5.72379 211.838 5.60694 210.807 5.64171C210.646 5.6473 211.227 5.71171 211.136 5.71485C210.232 5.74221 207.156 5.67653 207.012 5.6985C206.891 5.7168 208.203 5.77079 207.716 5.79738C207.615 5.80298 206.35 5.71592 205.104 5.73732C204.641 5.74519 204.92 5.8061 204.803 5.80964C203.833 5.83893 204.406 5.73636 202.632 5.75284C201.333 5.76504 200.365 5.86532 198.569 5.83211C204.465 5.95994 199.508 5.90654 197.043 5.94528C196.648 5.95146 196.986 6.06204 194.626 6.0082C199.65 5.80826 193.193 5.90252 191.872 5.90034C191.8 5.89966 191.775 5.82674 191.127 5.82557C191.072 5.82563 191.151 5.87491 190.549 5.87868C184.839 5.91431 188.49 5.85864 187.405 5.81004C186.944 5.78934 184.167 5.85902 183.419 5.86071C183.247 5.86088 183.326 5.80967 182.661 5.81168C181.484 5.81535 180.429 5.86987 179.652 5.87419C179.562 5.87444 179.558 5.79365 178.085 5.81985C177.671 5.82717 177.206 5.85586 177.794 5.87909C179.745 5.95549 183.444 5.82326 185.649 5.89952C187.659 5.96897 181.32 5.97552 180.991 5.97592C180.87 5.97618 182.108 5.93606 180.85 5.92812C179.776 5.92151 177.813 6.06106 176.212 6.03067C176.09 6.02842 174.811 5.9101 174.87 5.9032C174.924 5.89816 176.888 5.87247 176.603 5.83823C176.569 5.83433 175.32 5.83513 175.157 5.80964C174.958 5.7786 174.42 5.47407 174.153 5.46644C173.469 5.44757 173.915 5.51703 173.472 5.5122C172.523 5.50201 169.232 5.41195 169.125 5.51751C169.669 5.52377 170.213 5.53004 170.756 5.5363C167.732 5.54716 169.021 5.59209 168.592 5.61189C168.131 5.6333 168.261 5.54052 167.241 5.53181C167.019 5.52989 162.753 5.54926 162.831 5.58819C165.19 5.52623 164.315 5.64089 164.424 5.64294C164.837 5.65041 165.365 5.58609 165.92 5.58737C169.82 5.59744 165.887 5.69896 166.808 5.72506C167.125 5.73385 167.756 5.67894 167.89 5.68175C168.327 5.69085 168.335 5.76275 168.626 5.75693C169.306 5.74343 168.512 5.6417 168.566 5.6364C169.174 5.57273 171.556 5.65195 170.073 5.76265C170.963 5.80254 171.068 5.66801 171.774 5.72179C173.177 5.8283 171.074 5.80094 170.505 5.81862C168.461 5.88242 167.855 5.83078 164.963 5.84845C163.921 5.85468 162.687 5.92004 162.204 5.92363C161.899 5.92588 159.025 5.6985 158.94 6.05437C157.822 6.01993 156.069 5.78543 154.918 5.79615C153.884 5.80594 154.213 5.93183 154.117 5.9367C153.969 5.94435 152.719 5.93443 152.296 5.95223C151.801 5.97325 152.048 6.0213 151.262 6.04089C149.306 6.08949 149.357 5.96098 149.156 5.95263C146.822 5.8561 147.844 6.03889 147.326 6.05355C146.845 6.06702 140.089 5.99667 138.667 6.04293C139.245 6.01719 139.824 5.99145 140.403 5.96571C139.367 5.88555 138.269 6.01629 138.25 5.87255C138.04 6.10462 135.902 5.9495 135.26 5.95549C135.007 5.95796 135.027 5.99751 134.71 5.99921C133.473 6.00615 130.684 5.97467 130.013 5.99472C127.111 6.08105 134.532 6.22465 135.116 6.23332C133.946 6.23076 127.33 6.28274 130.371 6.3943C130.841 6.41151 131.674 6.30766 131.938 6.3036C133.726 6.27686 132.32 6.36992 132.46 6.37877C132.698 6.39306 133.875 6.30309 134.185 6.31381C134.289 6.31725 133.622 6.40151 135.326 6.40329C134.488 6.48498 129.697 6.41842 129.069 6.43761C128.845 6.44446 130.248 6.61902 126.148 6.44946C126.196 6.46566 126.244 6.48187 126.291 6.49808C124.008 6.50475 121.725 6.51142 119.443 6.5181C119.691 6.48076 120.972 6.40576 119.358 6.42167C118.429 6.43088 119.116 6.51405 119.032 6.51646C118.198 6.53935 103.436 6.51168 100.575 6.52096C99.6021 6.52397 96.8895 6.59081 96.6827 6.59205C95.4459 6.59874 91.0664 6.55523 90.1927 6.56467C89.6471 6.57073 90.1658 6.64025 89.6784 6.63699C89.2254 6.63386 89.6947 6.56667 89.5602 6.56386C88.4457 6.53951 79.9795 6.62764 77.9691 6.56426C79.1978 6.58329 85.3293 6.44904 85.206 6.40165C85.1794 6.39516 83.6892 6.34404 83.3818 6.36897C82.8739 6.31079 81.1302 6.48792 80.1818 6.45313C80.0746 6.44918 80.497 6.34982 78.8042 6.33179C78.2212 6.32563 76.6943 6.40307 75.1576 6.31626C72.9329 6.35798 61.2366 6.22912 60.4341 6.33587C60.4103 6.34151 62.0574 6.37827 60.9446 6.42208C59.4652 6.48032 60.7938 6.28416 59.0697 6.26723C58.8098 6.26466 54.0129 6.28451 53.8559 6.29665C52.4031 6.40674 56.5947 6.45137 56.536 6.46416C56.3898 6.49639 52.907 6.51589 52.7655 6.50829C52.6307 6.50038 55.4711 6.35451 52.0579 6.40982C52.4489 6.42726 52.8399 6.44469 53.2309 6.46212C51.6257 6.49607 51.4727 6.39515 51.0839 6.38899C49.875 6.36947 48.5671 6.52276 46.6302 6.33342C46.1181 6.28317 46.9683 6.22737 46.9042 6.21984C46.289 6.15221 45.504 6.33313 44.5789 6.19819C44.5092 6.18812 46.6623 6.10728 42.8991 6.10707C43.1581 6.12001 43.4171 6.13295 43.6761 6.14589C43.1455 6.17477 39.3353 6.19194 38.8227 6.18511C37.3253 6.16515 38.6312 6.07228 37.1261 6.08338C38.0914 6.21066 33.5146 6.22727 33.7779 6.1177C33.1386 6.25532 29.2507 6.14915 27.423 6.14589C26.2698 6.14393 23.9176 6.20398 23.5512 6.19696C23.1048 6.18835 23.2404 6.09447 22.4345 6.07357C22.2046 6.06761 19.8053 6.13643 17.6993 6.03925C17.2911 6.02053 16.4339 5.86128 17.1926 5.82148C18.491 5.75338 20.9475 5.88167 20.9161 5.78757C20.8793 5.68691 17.5707 5.74678 16.6802 5.73364C12.5688 5.67288 14.9429 5.56588 14.8372 5.53344C14.563 5.45473 12.3165 5.45717 12.2228 5.45009C11.8343 5.41866 13.4262 5.35636 13.4502 5.30832C13.4792 5.24577 11.3139 5.13288 11.8061 5.1118C12.5108 5.08185 14.5008 5.17594 14.627 5.17145C16.2693 5.11076 14.0181 4.96625 13.3977 4.89525C13.2096 4.87341 13.959 4.83752 13.803 4.83111C11.4226 4.7339 13.3012 5.03421 11.7179 5.01415C10.3053 4.99627 12.1228 4.90131 12.0689 4.89607C11.9991 4.89032 10.3101 4.88514 10.0457 4.85154C9.91538 4.83471 14.3054 4.65 14.1221 4.56717C12.7214 4.58542 11.3207 4.60367 9.91994 4.62192C9.81013 4.51393 11.8248 4.59343 12.0332 4.58229C12.4527 4.55995 11.283 4.5053 11.3332 4.47116C11.3601 4.44944 12.733 4.37195 11.4927 4.34001C11.0664 4.32898 10.1719 4.40469 8.61932 4.32734C14.0223 4.22855 10.2781 4.16785 10.1189 4.12959C9.96287 4.09135 12.5423 4.00132 9.41133 4.01724C9.27558 3.80708 9.47882 3.95081 10.3685 3.91387C11.4584 3.86847 8.93946 3.79926 12.9228 3.85177C12.6962 3.75337 9.4945 3.76033 9.32499 3.75248C9.17863 3.74537 9.89031 3.69697 9.63654 3.68058C6.63505 3.49045 8.69662 3.57727 7.82731 3.45586C7.74999 3.44501 4.9131 3.4 7.07283 3.38232C11.0075 3.35017 12.652 3.48961 13.3132 3.19152C10.4028 3.06203 6.8765 3.25444 5.99179 3.25771C4.63763 3.2624 6.04042 3.20161 5.87355 3.18457C5.8156 3.17907 4.64866 3.18409 4.63299 3.17926C3.80089 2.95191 9.8279 3.17549 11.7254 3.13595C11.2168 3.1019 10.7082 3.06786 10.1996 3.03381C10.8896 3.03245 11.5797 3.03109 12.2697 3.02972C8.98236 2.96128 12.1538 3.00381 12.9735 2.81972C13.1575 2.77835 10.9979 2.84929 13.4615 2.73433C11.6444 2.70779 12.224 2.67018 10.5787 2.72207C10.6212 2.64828 14.323 2.56505 15.7831 2.52718C10.625 2.44426 13.5664 2.71492 9.10729 2.57172C8.28038 2.66308 10.4088 2.6453 10.2352 2.66038C9.61254 2.7146 8.15277 2.6285 6.39155 2.81849C6.10478 2.84969 7.31822 2.9457 5.52259 2.94106C5.32399 2.94041 4.17983 2.85835 4.19569 2.8524C4.34737 2.78814 5.4796 2.81222 5.52634 2.7854C5.57021 2.76001 4.30703 2.77528 4.30267 2.76824C4.26385 2.68773 5.35662 2.73747 5.1979 2.71226C4.85515 2.65745 0.311495 2.4842 6.24141 2.53494C1.31598 2.62597 5.6108 2.62384 7.52889 2.58888C8.01804 2.58011 8.14192 2.53202 8.8389 2.51533C9.73545 2.49372 10.7848 2.5168 11.2487 2.50798C11.7477 2.49825 8.91267 2.38458 13.0129 2.4185C10.9262 2.30544 7.24022 2.42598 5.1904 2.34659C1.05481 2.18617 8.07391 2.15173 8.80512 2.13618C8.99993 2.13197 8.34682 2.06702 8.47668 2.06305C8.68904 2.05694 12.6727 2.08696 13.0655 2.03322C13.4572 1.97953 11.6063 2.03569 11.4833 1.9797C11.3999 1.942 16.2056 1.87513 13.6041 1.84936C11.8111 1.8317 8.506 1.98322 7.9493 1.82036C10.5862 1.80687 13.2231 1.79339 15.86 1.77991C14.4168 1.71794 12.9735 1.65597 11.5302 1.59401C14.4899 1.57436 17.0485 1.64431 19.8595 1.5556C13.1048 1.35704 22.0527 1.39714 22.1511 1.37297C22.184 1.35852 19.5253 1.19735 19.0975 1.16787C21.4534 1.10587 28.6121 1.07557 24.4239 0.876558C25.1841 0.921494 27.025 0.810571 27.0007 0.802199C26.767 0.714279 22.7518 0.771291 23.4066 0.691885C24.1655 0.599735 25.2289 0.724748 26.3964 0.714765C32.3872 0.662718 30.7437 0.203741 36.7507 0.276369C36.6312 0.260026 36.5117 0.243683 36.3923 0.22734C42.9216 0.253353 49.4511 0.279365 55.9804 0.305377C58.5351 0.165215 65.334 0.079865 68.6733 0.0953722C69.3457 0.098392 72.647 0.171953 72.8961 0.184849C73.3574 0.209565 70.8208 0.218996 71.9671 0.265337C72.2091 0.274849 77.7982 0.305758 77.3985 0.22734C76.7722 0.218248 74.8121 0.257666 74.4913 0.239189C72.2379 0.107303 89.4686 0.212666 90.3222 0.159518C89.9406 0.13405 89.559 0.108582 89.1773 0.0831149C90.2646 0.0956445 91.3519 0.108174 92.4392 0.120703ZM42.4768 6.41881C41.8243 6.4975 40.1888 6.4384 39.2225 6.46049C37.8873 6.49142 35.6178 6.79441 36.5949 6.49072C38.5556 6.46675 40.5162 6.44278 42.4768 6.41881ZM71.1319 6.53607C69.8171 6.49381 70.8369 6.3242 71.9145 6.39471C72.034 6.40272 72.9107 6.59296 71.1319 6.53607ZM57.3486 6.45558C57.404 6.45334 58.5401 6.45783 58.5798 6.46049C59.5987 6.52859 56.1733 6.51467 57.3486 6.45558ZM123.932 6.36856C122.483 6.37588 123.532 6.53007 124.433 6.46662C124.49 6.46259 124.027 6.3682 123.932 6.36856ZM122.902 6.36447C121.777 6.2264 119.511 6.50623 121.312 6.47806C121.487 6.47521 122.954 6.3712 122.902 6.36447ZM66.4455 6.46866C66.5935 6.41574 67.9496 6.44129 68.5287 6.45395C68.513 6.50226 67.0134 6.46274 66.4455 6.46866ZM100.83 6.45395C100.888 6.41235 96.1742 6.41465 95.8531 6.46948C96.5971 6.44621 100.776 6.49134 100.83 6.45395ZM112.919 6.39552C112.799 6.38833 111.171 6.39927 111.219 6.43597C112.013 6.48413 113.457 6.42808 112.919 6.39552ZM136.946 6.39798C137.034 6.38876 135.815 6.15516 138.704 6.30891C139.129 6.33142 137.613 6.39245 137.764 6.40084C138.08 6.41718 138.329 6.4248 138.53 6.42617C137.184 6.44553 135.786 6.45464 135.651 6.44047C135.016 6.37354 136.907 6.40182 136.946 6.39798ZM149.56 6.22393C149.837 6.18582 151.608 6.20619 152.011 6.22188C152.08 6.22483 151.778 6.32498 152.576 6.31749C153.216 6.31131 152.26 6.20874 153.507 6.22515C154.767 6.24162 153.083 6.31472 153.193 6.31994C153.341 6.32678 155.29 6.28072 155.23 6.34037C155.184 6.38455 153.096 6.35468 152.579 6.36406C151.918 6.37613 152.72 6.44974 151.615 6.43393C150.92 6.42405 151.305 6.29461 151.159 6.28807C151.036 6.2828 148.608 6.3573 149.563 6.22433C149.562 6.2242 149.561 6.22406 149.56 6.22393ZM138.894 6.42045C138.793 6.42482 138.674 6.42715 138.53 6.42617C138.652 6.42441 138.774 6.42237 138.894 6.42045ZM46.2755 6.36202C46.9589 6.40194 44.9304 6.45314 44.1622 6.40084C44.1489 6.35866 46.1667 6.35581 46.2755 6.36202ZM140.142 6.31504C142.141 6.34746 140.671 6.39206 138.894 6.42045C139.458 6.39608 139.471 6.3042 140.142 6.31504ZM83.3818 6.36897C83.466 6.37862 83.5195 6.39367 83.5263 6.4184C83.3047 6.39136 83.2848 6.37683 83.3818 6.36897ZM88.0456 6.41309C89.6445 6.33776 86.396 6.3408 86.4166 6.39471C86.4263 6.41506 87.9816 6.41609 88.0456 6.41309ZM125.79 6.37591C125.644 6.36854 127.916 6.14107 124.617 6.31177C126.378 6.33858 124.52 6.36335 124.548 6.38327C124.619 6.44052 127.577 6.38549 128.232 6.41023C128.745 6.30779 126.273 6.4002 125.794 6.37591C125.793 6.37591 125.791 6.37591 125.79 6.37591ZM172.293 6.27908C171.893 6.33911 170.621 6.3198 169.764 6.31626C170.164 6.25623 171.436 6.27555 172.293 6.27908ZM396.783 6.28766C390.905 6.34316 390.144 6.09871 395.522 6.19533C395.628 6.19735 397.14 6.26288 396.783 6.28766ZM346.335 6.22433C345.781 6.11779 347.614 6.10066 348.818 6.14466C349.09 6.15456 350.098 6.26248 348.948 6.28358C348.984 6.15444 347.205 6.10511 346.335 6.22433ZM141.272 6.24681C141.854 6.17575 143.646 6.22633 144.59 6.237C144.014 6.2955 142.107 6.26904 141.272 6.24681ZM377.467 6.16019C376.848 6.15212 376.43 6.24481 376.537 6.25253C377.015 6.2879 378.173 6.21296 377.467 6.16019ZM135.487 6.23577C135.406 6.19331 137.779 6.15245 137.944 6.25743C137.437 6.24983 135.546 6.26242 135.487 6.23577ZM170.676 6.24721C170.307 6.22563 172.215 6.18697 172.793 6.2084C172.746 6.25359 170.917 6.26125 170.676 6.24721ZM367.492 6.19165C366.937 6.1836 365.551 6.18114 365.398 6.21861C365.207 6.26545 367.24 6.24949 367.492 6.19165ZM470.728 6.11075C470.798 6.12758 468.651 6.24891 467.697 6.21821C465.884 6.15946 470.652 6.09886 470.728 6.11075ZM383.332 6.11239C385.082 6.20054 383.139 6.11517 383.216 6.20799C384.393 6.21133 387.322 6.21591 385.309 6.12464C384.916 6.10699 383.881 6.11839 383.332 6.11239ZM381.718 6.08133C381.531 6.11141 380.27 6.2062 381.36 6.19941C381.864 6.19613 382.676 6.09079 381.718 6.08133ZM457.427 6.15202C455.859 6.06984 463.048 6.11393 463.254 6.12832C463.363 6.13592 463.435 6.14309 463.476 6.14916C463.74 6.12311 465.098 6.11842 465.255 6.18429C464.848 6.17886 463.736 6.18465 463.607 6.17735C463.551 6.17424 463.51 6.17132 463.481 6.16836C463.002 6.22555 457.727 6.1676 457.427 6.15202ZM445.515 6.06744C447.309 5.94621 447.627 6.15233 447.472 6.15896C445.519 6.24332 446.793 6.09131 446.733 6.08419C446.596 6.07235 445.209 6.14288 445.52 6.06744C445.518 6.06744 445.517 6.06744 445.515 6.06744ZM454.985 6.11811C455.059 6.11542 456.565 6.1218 456.627 6.12505C457.862 6.19432 453.599 6.17658 454.985 6.11811ZM159.068 6.0797C160.146 6.10019 159.088 6.17602 158.371 6.14875C158.312 6.14606 158.116 6.0616 159.068 6.0797ZM380.857 6.10176C380.607 6.08743 374.21 6.0334 374.594 6.14793C375.137 6.13441 382.409 6.19337 380.857 6.10176ZM333.049 6.07398C334.177 6.07487 332.947 6.18288 332.345 6.14262C332.122 6.12766 332.765 6.07382 333.049 6.07398ZM132.288 6.13772C131.116 6.19706 131.358 5.99798 132.374 6.06622C132.414 6.06889 132.333 6.1354 132.288 6.13772ZM342.062 6.13608C338.171 6.20154 339.092 5.85909 344.15 5.9747C343.992 5.98995 343.834 6.0052 343.676 6.02046C349.514 6.07183 344.075 6.04459 342.645 6.06377C342.102 6.07105 342.557 6.12822 342.065 6.13649C342.064 6.13636 342.063 6.13622 342.062 6.13608ZM327.117 6.06744C323.37 5.82438 330.523 5.98267 332.574 5.951C330.585 6.05137 327.996 6.03618 331.518 6.13894C326.368 6.15881 328.512 6.06201 328.306 6.05396C328.063 6.04493 327.276 6.07788 327.117 6.06744ZM337 6.06581C337.216 6.05872 338.848 6.1082 339.436 6.10013C338.614 6.18316 335.562 6.11403 337 6.06581ZM433.026 6.12383C433.162 6.05877 433.497 6.01085 434.785 6.03517C434.387 6.06786 433.564 6.09597 433.026 6.12383ZM41.2382 6.07643C40.3512 6.07177 38.5852 6.04725 39.1268 6.11565C39.186 6.12148 41.2355 6.11482 41.2382 6.07643ZM362.277 6.04906C362.088 6.04106 357.21 6.03569 358.895 6.10748C359.403 6.12913 363.841 6.11994 362.277 6.04906ZM387.538 6.05723C387.13 6.05655 385.472 6.0688 385.436 6.08419C385.324 6.13739 387.36 6.10814 387.538 6.05723ZM36.7639 6.00983C36.6471 6.00309 33.938 6.01504 34.2358 6.04661C34.8011 6.1063 37.1642 6.03309 36.7639 6.00983ZM162.992 5.9273C163.218 5.9249 163.518 5.99557 163.596 5.99635C163.78 5.99736 167.926 5.97018 166.342 6.06091C166.078 6.07611 160.114 6.04127 159.338 6.03231C159.038 5.93529 161.586 6.02758 162.206 6.0176C162.315 6.0157 162.385 5.93454 162.99 5.92771C162.991 5.92758 162.991 5.92744 162.992 5.9273ZM439.736 6.05519C439.919 5.99351 444.792 5.95267 444.736 6.0274C443.069 6.03666 441.403 6.04592 439.736 6.05519ZM437.26 6.04497C436.221 6.00134 438.656 5.98691 439.374 6.00616C439.381 6.04765 437.412 6.05135 437.26 6.04497ZM378.295 5.8268C377.805 5.84188 379.311 5.93187 378.974 5.94937C378.759 5.96026 377.664 5.92653 377.315 5.95468C377.216 5.96362 378.333 6.04822 378.655 6.04456C379.114 6.03968 378.669 5.97311 379.17 5.97265C380.831 5.97122 382.304 6.0187 383.862 6.0176C384.002 6.01737 382.912 5.97036 384.111 5.97102C384.297 5.97103 385.411 6.04105 386.846 6.03067C390.015 5.81382 392.343 6.02674 396.365 5.94855C396.213 5.92813 393.205 5.87335 393.028 5.87133C389.666 5.83567 383.643 5.83175 380.121 5.83129C379.218 5.8311 379.656 5.877 379.267 5.87868C378.96 5.87992 379.325 5.79493 378.295 5.8268ZM41.7092 6.02945C41.2865 5.94456 39.8037 5.99829 38.8565 5.9939C39.1899 6.07047 40.7837 6.01064 41.7092 6.02945ZM415.381 5.97919C414.906 5.98247 413.434 5.9569 413.312 5.98246C413.156 6.01584 415.28 6.03689 415.381 5.97919ZM186.366 5.95141C186.412 5.94909 187.554 5.95364 187.597 5.95631C188.617 6.02444 185.192 6.01048 186.366 5.95141ZM213.686 5.96775C214.552 5.95727 215.426 5.93075 215.717 5.99962C215.165 5.98907 213.585 6.01572 213.686 5.96775ZM251.378 5.96571C251.199 5.87551 253.806 5.93392 254.298 5.94201C254.116 5.9821 251.509 6.0307 251.378 5.96571ZM432.839 5.84069C434.432 5.84602 434.096 5.7094 435.108 5.77123C435.273 5.78168 435.807 6.06617 434.055 5.95958C433.74 5.94042 434.973 5.87281 432.839 5.84069ZM344.974 5.97756C345.38 5.91789 346.646 5.9356 347.502 5.94038C347.31 5.98471 345.583 5.9733 344.974 5.97756ZM31.871 5.9416C31.1236 5.85737 27.6701 5.91985 28.5247 5.97551C28.6462 5.98277 31.3866 5.93842 31.871 5.9416ZM145.324 5.9747C146.745 5.90836 143.802 5.88782 142.873 5.95263C143.293 5.94839 145.228 5.97906 145.324 5.9747ZM242.324 5.91668C242.393 5.91396 243.899 5.92036 243.967 5.92363C245.201 5.9929 240.938 5.97516 242.324 5.91668ZM204.702 5.85825C205.245 5.80367 208.814 5.84771 209.614 5.90238C208.844 5.9822 204.028 5.92644 204.702 5.85825ZM426.281 5.8795C427.418 5.87667 428.497 5.89349 429.541 5.91709C429.321 5.96305 426.401 5.91383 426.281 5.8795ZM247.855 5.91096C247.936 5.91133 248.015 5.91653 248.092 5.91709C248.011 5.91514 247.933 5.91292 247.855 5.91096ZM400.834 5.84722C399.881 5.82907 400.079 5.91328 400.137 5.91586C400.854 5.94314 401.912 5.86771 400.834 5.84722ZM40.6207 5.90442C40.2904 5.82843 38.6879 5.88737 37.7661 5.86929C38.0335 5.92931 39.8781 5.9124 40.6207 5.90442ZM323.104 5.91178C321.907 5.82938 326.777 5.73365 327.803 5.78676C327.879 5.83767 323.279 5.92305 323.104 5.91178ZM140.911 5.86071C140.816 5.80116 138.771 5.87302 139.205 5.90115C139.481 5.91906 140.969 5.8977 140.911 5.86071ZM330.253 5.82148C330.71 5.80331 331.777 5.86207 331.401 5.89789C330.919 5.94379 330.134 5.82669 330.253 5.82148ZM371.308 5.77368C371.108 5.76458 368.417 5.82571 369.529 5.88645C370.3 5.92866 370.423 5.84258 370.604 5.84232C370.807 5.84259 375.126 5.94794 371.308 5.77368ZM295.826 5.85989C296.842 5.83699 298.069 5.86357 299.132 5.86193C298.699 5.89876 296.258 5.9088 295.826 5.85989ZM148.798 5.84477C148.551 5.82069 141.835 5.80618 145.65 5.88032C145.873 5.88451 149.547 5.91771 148.798 5.84477ZM432.839 5.84069C432.638 5.84001 432.406 5.83717 432.137 5.83129C432.404 5.83361 432.636 5.83764 432.839 5.84069ZM414.739 5.8317C415.106 5.78835 413.257 5.77676 412.712 5.79983C412.544 5.85279 414.688 5.83776 414.739 5.8317ZM299.212 5.80146C299.824 5.77666 300.935 5.80313 301.693 5.80024C301.565 5.84054 299.477 5.8424 299.212 5.80146ZM256.224 5.75611C257.44 5.78006 258.935 5.76905 258.959 5.71975C258.984 5.72745 259.043 5.73563 259.141 5.74386C259.24 5.75199 260.542 5.72907 261.108 5.7459C264.495 5.84585 248.027 5.8046 257.572 5.66541C257.122 5.69564 256.673 5.72588 256.224 5.75611ZM199.873 5.74222C199.183 5.68221 197.251 5.75741 197.752 5.78104C198.102 5.79722 200.564 5.80264 199.873 5.74222ZM226.422 5.70668C226.216 5.69596 224.329 5.73799 224.281 5.7696C225.365 5.8029 227.362 5.75643 226.422 5.70668ZM194.569 5.67195C194.136 5.66289 193.584 5.75965 193.635 5.76388C194.075 5.7992 195.297 5.72582 194.569 5.67195ZM429.537 5.58002C428.893 5.55231 426.839 5.62235 426.392 5.68625C426.309 5.67389 426.084 5.65778 425.673 5.63844C425.674 5.63844 425.676 5.63844 425.677 5.63844C425.122 5.61263 408.521 5.58443 419.656 5.70749C420.005 5.71144 419.528 5.65408 420.947 5.66418C421.041 5.66492 421.088 5.71175 421.377 5.71403C422.044 5.71898 425.592 5.74845 426.306 5.71076C426.312 5.71944 426.358 5.7277 426.456 5.73528C427.33 5.80281 430.037 5.60138 429.537 5.58002ZM230.163 5.6981C229.783 5.68074 228.581 5.69722 228.457 5.73854C229.053 5.7588 231.044 5.73858 230.163 5.6981ZM148.589 5.67522C147.816 5.64123 145.856 5.70477 146.448 5.73854C146.811 5.75932 149.482 5.71424 148.589 5.67522ZM218.125 5.72016C222.561 5.76901 219.184 5.71621 219.863 5.6556C219.284 5.67712 218.704 5.69864 218.125 5.72016ZM450.066 5.7365C449.359 5.72256 450.19 5.60298 450.969 5.66786C451.213 5.68847 450.462 5.74408 450.066 5.7365ZM482.003 5.69932C481.4 5.59329 484.348 5.65559 483.199 5.72833C483.146 5.73078 482.047 5.70336 482.003 5.69932ZM459.686 5.65601C459.206 5.72821 458.894 5.73677 457.541 5.71893C459.543 5.69859 457.687 5.63474 459.686 5.65601ZM258.945 5.71199C258.953 5.7149 258.96 5.71706 258.959 5.71975C258.95 5.7171 258.946 5.71458 258.945 5.71199ZM190.399 5.69074C189.844 5.62958 188.288 5.63408 188.751 5.69564C188.796 5.70134 190.171 5.73593 190.399 5.69074ZM426.392 5.68625C426.466 5.6972 426.428 5.70429 426.306 5.71076C426.3 5.70259 426.332 5.69487 426.392 5.68625ZM198.754 5.6409C198.699 5.68653 201.067 5.70427 201.162 5.69891C202.522 5.61978 199.732 5.63815 198.754 5.6409ZM132.929 5.61107C132.807 5.61583 133.595 5.73362 134.078 5.68747C134.452 5.65167 133.387 5.59295 132.929 5.61107ZM464.279 5.6266C465.029 5.62668 466.085 5.62662 466.28 5.68257C465.777 5.67398 464.263 5.66765 464.279 5.6266ZM480.849 5.62251C479.963 5.68828 477.938 5.6881 476.645 5.67726C476.621 5.59068 480.017 5.64287 480.849 5.62251ZM431.572 5.6123C431.51 5.60877 429.63 5.58294 429.887 5.6409C430.262 5.72588 432.103 5.64381 431.572 5.6123ZM136.582 5.67358C137.423 5.63367 135.487 5.51101 134.6 5.60576C134.144 5.65428 136.44 5.68027 136.582 5.67358ZM185.54 5.61066C184.43 5.6442 187.181 5.70394 187.565 5.64335C187.054 5.63848 185.934 5.59879 185.54 5.61066ZM223.303 5.54938C219.806 5.3746 221.711 5.69344 222.331 5.66541C222.418 5.66141 223.389 5.55349 223.303 5.54938ZM23.1927 5.59228C22.6976 5.61656 24.5435 5.70453 24.7823 5.64662C24.9299 5.61037 23.5093 5.5768 23.1927 5.59228ZM275.968 5.66296C275.82 5.66352 275.674 5.66409 275.529 5.66459C275.638 5.66174 275.781 5.66081 275.968 5.66296ZM175.465 5.37655C177.927 5.62332 177.669 5.43312 177.883 5.43416C178.345 5.43682 179.419 5.50354 180.29 5.49258C179.293 5.52037 178.295 5.54815 177.297 5.57593C178.085 5.59375 184.933 5.68459 185.076 5.64457C185.282 5.58759 183.127 5.60547 183.064 5.60045C182.974 5.5933 182.637 5.43487 182.438 5.42885C182.109 5.41922 176.383 5.41593 175.465 5.37655ZM215.989 5.57675C216.552 5.59558 216.711 5.65835 216.973 5.64335C217.062 5.63821 217.076 5.57835 217.38 5.56286C216.916 5.56749 216.453 5.57212 215.989 5.57675ZM171.057 5.5984C170.36 5.52525 173.484 5.55303 173.585 5.56122C174.119 5.61081 171.626 5.65817 171.057 5.5984ZM197.572 5.58778C197.458 5.58351 195.058 5.56067 195.078 5.60126C195.713 5.63221 198.921 5.64123 197.572 5.58778ZM217.755 5.55877C218.598 5.56576 220.192 5.62604 220.009 5.53589C220.008 5.53589 220.007 5.53589 220.006 5.53589C219.255 5.54352 218.505 5.55115 217.755 5.55877ZM139.461 5.48319C137.898 5.33961 138.638 5.52103 140.022 5.56735C140.441 5.50289 139.717 5.50655 139.461 5.48319ZM134.461 5.37614C134.026 5.35031 129.547 5.37862 130.231 5.45459C130.473 5.48166 133.049 5.41338 133.168 5.41863C133.348 5.42642 132.526 5.51046 133.9 5.49381C133.819 5.46533 134.61 5.38477 134.461 5.37614ZM138.168 5.39126C136.615 5.28207 136.266 5.48346 137.434 5.484C137.89 5.48436 138.389 5.40701 138.168 5.39126ZM144.509 5.40842C143.951 5.38932 142.463 5.36146 141.437 5.42844C142.81 5.43416 144.182 5.43988 145.555 5.4456C145.713 5.40766 144.998 5.42521 144.505 5.40842C144.507 5.40842 144.508 5.40842 144.509 5.40842ZM490.179 5.10649C488.945 5.04938 491.787 5.02749 491.907 5.04152C492.264 5.0881 490.73 5.13199 490.179 5.10649ZM13.5572 3.7627C13.2144 3.73993 12.9903 3.66503 12.2359 3.70427C12.9948 3.75957 13.7536 3.81486 14.5125 3.87015C15.1022 3.74346 13.9318 3.78781 13.5572 3.7627ZM10.6594 3.29979C10.7666 3.29672 10.181 3.1019 11.5659 3.23197C12.5016 3.31979 7.41327 3.40537 6.49478 3.31899C7.50966 3.27885 9.73665 3.3248 10.6594 3.29979ZM1.74646 2.4565C1.68779 2.44096 3.62097 2.41817 3.84473 2.42913C5.01966 2.48686 2.06388 2.53973 1.74646 2.4565ZM7.91364 2.49368C7.00702 2.45585 9.01547 2.43146 9.61402 2.45323C9.67208 2.48949 8.0537 2.49919 7.91364 2.49368ZM477.687 2.2849C476.706 2.15249 475.828 2.43752 477.338 2.3801C477.41 2.3774 477.729 2.29138 477.687 2.2849ZM3.6364 2.25998C4.54302 2.29781 2.53458 2.3222 1.93602 2.30043C1.88035 2.2642 3.49836 2.25444 3.6364 2.25998ZM476.996 1.96948C475.693 1.87421 476.152 2.19398 476.315 2.20686C476.986 2.25775 479.285 2.13224 479.755 2.10104C476.313 2.14903 477.61 2.01438 476.996 1.96948ZM470.987 2.16151C469.778 2.19563 472.867 2.26087 473.457 2.17173C472.856 2.17599 471.33 2.15165 470.987 2.16151ZM463.65 2.05896C463 2.04751 461.067 2.02009 460.743 2.0704C461.453 2.06129 463.376 2.11073 463.65 2.05896ZM462.179 1.9082C461.163 1.83983 460.919 2.03903 462.091 1.9797C462.136 1.9774 462.216 1.912 462.179 1.9082ZM456.468 1.83629C455.801 1.75707 455.04 1.94998 456.12 1.95518C456.441 1.95637 456.538 1.84537 456.468 1.83629ZM475.365 1.62547C474.411 1.59145 473.181 1.7296 475.219 1.74477C474.503 1.76588 473.787 1.78699 473.072 1.8081C475.741 1.88553 475.545 1.69395 476.311 1.70187C477.382 1.71313 477.298 1.87122 477.082 1.92086C477.96 1.82401 481.691 1.82246 483.846 1.80401C481.952 1.76336 478.877 1.69289 477.007 1.66714C476.474 1.65969 475.955 1.70304 475.5 1.69819C474.771 1.69019 475.419 1.62776 475.369 1.62547C475.368 1.62547 475.366 1.62547 475.365 1.62547ZM448.96 1.83343C447.002 1.74369 448.24 1.93744 449.347 1.90289C449.394 1.90023 449.009 1.83562 448.96 1.83343ZM1.03891 1.67123C3.65602 1.75221 1.7537 1.85954 7.22861 1.69656C4.92847 1.81194 7.1014 1.77954 6.65243 1.82608C6.29225 1.8629 4.94269 1.8324 5.72716 1.90656C4.69604 1.82585 0.219382 1.84817 0.0198046 1.83506C0.0216814 1.83506 0.0235582 1.83506 0.025435 1.83506C-0.094433 1.8273 0.203794 1.64547 1.03891 1.67123ZM463.641 1.55233C462.987 1.31725 462.731 1.69038 461.447 1.49554C459.737 1.77847 466.171 1.49558 466.95 1.73456C459.962 1.70679 471.566 1.97135 466.689 1.61362C470.707 1.74346 468.005 1.56932 468.626 1.52373C469.289 1.47518 471.562 1.52795 471.446 1.44039C471.445 1.44039 471.444 1.44039 471.443 1.44039C470.053 1.44651 468.662 1.45264 467.272 1.45877C468.633 1.64765 465.792 1.59102 464.829 1.43712C464.433 1.47552 464.037 1.51393 463.641 1.55233ZM471.508 1.72965C471.371 1.72533 468.348 1.7518 468.543 1.78971C468.947 1.81389 473.238 1.7849 471.508 1.72965ZM484.815 1.68839C483.729 1.68793 482.051 1.65108 481.459 1.7223C482.545 1.72278 484.224 1.75965 484.815 1.68839ZM428.914 1.6749C427.531 1.73335 431.791 1.75066 430.558 1.68144C430.498 1.67818 428.982 1.67218 428.914 1.6749ZM460.493 1.58788C459.087 1.51604 459.751 1.74471 460.794 1.68512C460.854 1.68161 460.558 1.59116 460.493 1.58788ZM3.1597 1.64344C3.25381 1.58742 7.05099 1.62677 7.72408 1.62628C7.34166 1.67836 3.05173 1.70767 3.1597 1.64344ZM486.726 1.47879C484.565 1.27734 481.634 1.51002 481.313 1.50494C480.993 1.49976 481.495 1.4117 481.422 1.40933C481.256 1.40439 477.852 1.41178 477.687 1.41791C477.569 1.42269 478.185 1.54644 477.482 1.58543C478.853 1.51511 485.076 1.5591 485.399 1.54539C485.649 1.53444 483.763 1.40448 486.722 1.47879C486.723 1.47879 486.724 1.47879 486.726 1.47879ZM480.51 1.47797C481.36 1.52985 478.975 1.53634 478.398 1.5172C477.116 1.47436 480.4 1.47183 480.51 1.47797ZM474.774 1.43017C474.502 1.41854 472.044 1.40797 471.835 1.46572C472.998 1.54063 475.392 1.45728 474.774 1.43017ZM447.425 1.43793C446.787 1.44533 445.032 1.40095 444.931 1.45142C445.57 1.44406 447.325 1.4884 447.425 1.43793ZM16.1153 1.20301C15.0548 1.16078 17.5118 1.14353 18.2285 1.16378C18.2674 1.19745 16.2056 1.20663 16.1153 1.20301ZM460.255 1.10536C459.877 1.09001 452.167 1.1283 451.085 1.15193C452.143 1.1901 459.785 1.19303 460.131 1.17441C460.232 1.16883 460.303 1.10777 460.255 1.10536ZM476.93 1.08207C477.637 1.00776 478.099 1.09688 478.188 1.098C479.062 1.10937 480.875 1.09262 480.478 1.16419C478.935 1.13532 475.523 1.22964 476.93 1.08207ZM446.877 1.10168C444.259 1.12926 449.288 1.20755 448.628 1.12987C448.586 1.12518 447.148 1.09879 446.877 1.10168ZM461.117 1.0837C461.694 1.02366 469.407 1.07544 470.645 1.07553C469.536 1.18628 468.642 1.10216 467.152 1.10781C466.75 1.10946 466.858 1.15554 466.815 1.15561C466.118 1.15775 466.639 1.10453 466.21 1.10372C465.939 1.10336 460.304 1.16831 461.117 1.0837ZM477.334 1.03059C477.765 0.987991 482.581 0.969832 482.775 0.981152C484.224 1.06535 477.708 1.04542 477.334 1.03059ZM460.409 0.985238C461.238 0.856522 465.069 0.942723 462.447 1.00689C462.197 1.01273 461.137 0.956933 460.409 0.985238ZM447.157 0.97911C447.028 0.975324 444.299 0.949595 444.25 0.99055C444.644 1.00646 448.623 1.02074 447.157 0.97911ZM448.572 0.840604C448.506 0.841586 449.146 0.920465 447.866 0.91047C447.76 0.909529 447.561 0.820783 445.952 0.85327C445.625 0.85996 445.12 0.918669 445.156 0.922318C446.831 1.06159 451.877 0.794848 448.572 0.840604ZM477.422 0.958681C477.163 0.921221 477.789 0.810039 478.353 0.866344C478.595 0.890656 478.143 0.957381 477.422 0.958681ZM438.501 0.943155C440.088 0.875726 435.106 0.862978 434.853 0.880235C435.013 0.922237 438.342 0.949741 438.501 0.943155ZM18.5983 0.682487C18.597 0.682487 18.5958 0.682487 18.5945 0.682487C19.9294 0.697766 19.1026 0.75386 19.1651 0.755621C22.0083 0.838012 21.2541 0.710964 21.6988 0.69597C22.6521 0.663543 22.4985 0.818043 24.1067 0.753987C21.4484 0.848581 23.8681 0.808926 23.9434 0.863893C24.2413 1.0882 20.4041 0.758859 19.0787 0.805876C18.8941 0.812386 20.2576 0.883975 19.7844 0.904341C18.2461 0.970331 13.4763 0.62406 18.5983 0.682487ZM478.789 0.856539C479.408 0.790651 484.105 0.854556 482.859 0.908835C482.659 0.917538 477.878 0.952574 478.789 0.856539ZM259.371 0.759299C260.5 0.702279 257.884 0.635247 257.399 0.679627C257.158 0.701738 258.876 0.784323 259.371 0.759299ZM241.028 0.515382C239.686 0.526957 238.272 0.764739 239.941 0.727839C240.118 0.723805 241.181 0.548366 241.028 0.515382ZM329.11 0.637545C327.709 0.552569 327.792 0.710455 328.821 0.708227C329.184 0.707466 329.154 0.640234 329.11 0.637545ZM275.651 0.657973C275.511 0.652462 273.891 0.662543 273.95 0.69883C274.549 0.720601 276.557 0.695806 275.651 0.657973ZM329.555 0.615073C328.724 0.643529 330.153 0.757724 331.169 0.646125C330.653 0.655279 329.64 0.612166 329.555 0.615073ZM457.515 0.636319C456.82 0.70115 454.852 0.681561 453.722 0.692702C453.6 0.608709 456.707 0.651547 457.515 0.636319ZM246.722 0.610988C245.452 0.670185 248.172 0.71865 247.923 0.640405C247.888 0.636154 246.772 0.608464 246.722 0.610988ZM374.299 0.606493C373.376 0.656596 376.307 0.723976 375.501 0.635911C375.461 0.63232 374.35 0.603706 374.299 0.606493ZM387.097 0.635502C386.397 0.618601 383.411 0.623801 384.573 0.672682C384.753 0.680193 387.045 0.681393 387.097 0.635502ZM21.7776 0.635502C21.4002 0.549221 23.5905 0.569759 23.904 0.584839C24.0272 0.591111 22.2697 0.74776 21.7776 0.635502ZM320.013 0.624062C319.288 0.634857 317.408 0.614343 317.078 0.659608C317.964 0.650238 320.251 0.71423 320.013 0.624062ZM252.512 0.610579C251.406 0.516822 249.517 0.526076 249.984 0.648576C252.071 0.640367 249.726 0.538469 252.512 0.610579ZM334.222 0.514157C333.641 0.507004 333.196 0.624649 333.261 0.63019C333.891 0.682922 334.8 0.559928 334.222 0.514157ZM290.611 0.610988C290.577 0.560713 288.714 0.583531 288.963 0.615891C289.045 0.626754 290.638 0.651674 290.611 0.610988ZM433.117 0.607719C432.263 0.561831 434.87 0.516968 435.641 0.570539C436.016 0.647732 433.224 0.61299 433.117 0.607719ZM350.338 0.543574C350.425 0.468964 347.513 0.511147 348.66 0.572991C348.948 0.588465 350.308 0.568521 350.338 0.543574ZM378.214 0.454097C376.261 0.54307 384.463 0.606236 382.308 0.495362C382.154 0.487463 378.385 0.446583 378.214 0.454097ZM391.609 0.509662C391.272 0.499859 391.44 0.249149 392.835 0.345826C393.018 0.358364 392.161 0.424638 392.311 0.439797C392.399 0.448436 395.431 0.483647 395.571 0.477794C395.721 0.471148 395.544 0.390793 395.697 0.38178C395.868 0.371706 397.735 0.442294 398.713 0.443065C400.555 0.444389 400.754 0.377507 400.905 0.377285C401.345 0.376842 402.085 0.42433 402.977 0.424271C407.474 0.423738 414.351 0.367045 417.916 0.508845C414.744 0.451902 411.721 0.512318 408.564 0.530908C409.489 0.391301 403.92 0.638475 407.177 0.477385C405.678 0.512327 392.714 0.540272 391.613 0.509662C391.612 0.509662 391.61 0.509662 391.609 0.509662ZM235.733 0.445108C236.557 0.359508 232.329 0.378763 231.97 0.477794C232.528 0.491537 235.631 0.45481 235.733 0.445108ZM255.241 0.236329C255.633 0.221553 256.006 0.0542314 258.065 0.139089C258.067 0.139089 258.069 0.139089 258.071 0.139089C258.673 0.163871 257.987 0.204641 258.097 0.219169C258.137 0.225101 260.015 0.308334 258.456 0.32172C256.077 0.342257 258.232 0.197243 256.964 0.195472C256.809 0.195335 254.408 0.285905 254.548 0.305786C254.562 0.308102 255.285 0.288942 255.404 0.297206C255.854 0.328269 255.635 0.380519 255.699 0.383006C255.906 0.389377 259.702 0.300361 260.254 0.378103C260.433 0.403172 254.203 0.461002 253.961 0.447968C253.807 0.439755 253.872 0.294719 253.713 0.280454C253.631 0.273349 251.125 0.327699 250.8 0.314366C250.706 0.310509 250.633 0.306352 250.581 0.302926C250.96 0.347798 248.69 0.344567 248.76 0.293937C248.799 0.274038 250.361 0.285556 250.417 0.289034C250.442 0.290507 250.463 0.292537 250.483 0.293937C250.16 0.239252 255.447 0.241719 254.306 0.160335C255.839 0.115752 254.088 0.279723 255.241 0.236329ZM262.609 0.146852C262.451 0.162105 262.292 0.177358 262.134 0.192612C264.818 0.155277 267.914 0.228705 271.006 0.228157C271.79 0.22813 270.888 0.134843 271.916 0.160335C272.74 0.180764 273.651 0.26729 273.203 0.286583C273.094 0.291397 271.417 0.235039 270.578 0.240823C268.1 0.257946 268.726 0.337945 268.581 0.340106C268.421 0.34238 266.861 0.28612 266.01 0.288626C263.868 0.295101 262.89 0.344217 259.965 0.280046C261.653 0.227322 260.728 0.112783 262.609 0.146852ZM362.637 0.317226C362.739 0.266872 364.495 0.311547 365.133 0.304152C365.033 0.354629 363.275 0.309826 362.637 0.317226ZM100.943 0.251854C100.404 0.334484 104.446 0.354944 103.381 0.286174C103.145 0.270912 101.451 0.252442 100.943 0.251854ZM119.105 0.302109C119.646 0.279264 117.468 0.219772 117.472 0.283723C117.475 0.30423 119.035 0.305079 119.105 0.302109ZM297.298 0.228157C297.4 0.22557 298.888 0.243974 298.934 0.248177C299.92 0.335914 295.023 0.285204 297.298 0.228157ZM141.184 0.200375C139.299 0.254535 144.972 0.278009 143.239 0.208955C143.152 0.205591 141.274 0.197742 141.184 0.200375ZM149.07 0.185257C148.618 0.18816 146.611 0.161269 146.585 0.186483C146.545 0.227161 148.842 0.254956 149.07 0.185257ZM334.614 0.202009C334.397 0.108907 337.043 0.179413 337.963 0.167689C338.181 0.260855 335.534 0.190252 334.614 0.202009ZM317.913 0.133369C329.068 0.0599761 326.609 0.258893 317.248 0.17872C317.235 0.118993 317.209 0.137991 317.913 0.133369ZM332.197 0.144401C331.792 0.204045 330.525 0.186358 329.669 0.18158C329.823 0.140112 331.58 0.15512 332.197 0.144401ZM96.129 0.123972C96.8286 0.0486274 99.9267 0.141514 99.3759 0.172592C99.2476 0.179303 95.8721 0.165406 96.129 0.123972ZM298.233 0.148486C297.973 0.0579417 301.322 0.0948751 301.579 0.114984C302.613 0.195865 298.504 0.128502 298.233 0.148486ZM350.447 0.122338C351.039 0.0514157 352.719 0.0878935 353.799 0.088835C353.307 0.149479 351.364 0.123614 350.447 0.122338ZM342.647 0.0667722C342.715 0.06405 344.222 0.0704529 344.289 0.0737178C345.524 0.142989 341.261 0.125249 342.647 0.0667722ZM16.7478 0.00140095C16.798 -0.000884533 17.9392 0.00363779 17.9789 0.00630379C18.9975 0.0743957 15.5724 0.060482 16.7478 0.00140095Z" fill="#FDD442"/>
</svg>
