<svg width="216" height="216" viewBox="0 0 216 216" fill="none" xmlns="http://www.w3.org/2000/svg">
<path d="M77.7138 53.2414C74.86 47.8118 71.319 42.9769 67.2558 38.785C31.1327 59.9206 17.4361 105.666 36.3461 143.284C41.4899 142.101 46.5677 140.245 51.4595 137.674C82.0246 121.608 93.7789 83.8066 77.7138 53.2414ZM136.974 167.644C120.908 137.079 83.1053 125.324 52.54 141.39C47.965 143.794 43.8138 146.689 40.1121 149.971C61.4744 183.99 105.19 196.891 141.741 179.493C140.582 175.467 138.999 171.498 136.974 167.644ZM177.879 70.0833C178.902 72.0593 179.837 74.058 180.686 76.0746C175.891 77.2628 171.161 79.0412 166.593 81.4424C136.027 97.5079 124.273 135.31 140.339 165.876C142.365 169.73 144.738 173.284 147.398 176.522C184.273 155.258 198.055 108.465 178.076 70.4532C178.011 70.3295 177.945 70.2065 177.879 70.0833ZM177.472 69.3266C157.377 32.5133 112.265 17.7369 74.4508 35.044C75.6 40.7558 77.569 46.4024 80.4169 51.8206C96.4825 82.3856 134.285 94.1398 164.85 78.0744C169.504 75.6283 173.722 72.6783 177.472 69.3266Z" fill="#9C39EE"/>
</svg>
