<svg width="205" height="179" viewBox="0 0 205 179" fill="none" xmlns="http://www.w3.org/2000/svg">
<path d="M47.8926 56.6573C58.3666 50.9501 69.8872 49.0335 80.8782 50.4422C85.6533 40.445 93.5082 31.8051 103.98 26.0989C130.431 11.6863 163.557 21.4449 177.969 47.8952C192.382 74.3456 182.623 107.472 156.173 121.884C145.699 127.591 134.178 129.507 123.187 128.098C118.412 138.096 110.558 146.736 100.085 152.443C73.635 166.855 40.509 157.096 26.0963 130.646C11.6837 104.196 21.4423 71.0699 47.8926 56.6573ZM93.1083 72.8892C78.3171 80.9489 70.2463 94.6769 75.0821 103.552C79.918 112.426 95.829 113.087 110.62 105.027C125.411 96.9678 133.482 83.2397 128.646 74.3649C123.811 65.4901 107.9 64.8295 93.1083 72.8892Z" fill="#D9FE78"/>
</svg>
