<svg width="590" height="150" viewBox="0 0 590 150" fill="none" xmlns="http://www.w3.org/2000/svg">
<path d="M381.121 23.2002V69.6025L340.936 92.8027L300.751 69.6025V23.2002L340.936 0L381.121 23.2002ZM342.391 34.4072L332.047 62.5166H338.521L348.865 34.4072H342.391ZM309.112 45.7383V51.1865L327.905 58.6875V52.3701L316.061 48.4619L327.905 44.5537V38.2363L309.112 45.7383ZM353.002 44.5537L364.846 48.4619L353.002 52.3701V58.6875L371.794 51.1865V45.7383L353.002 38.2363V44.5537Z" fill="#1CC972"/>
<path d="M243.137 2.90234C266.074 2.90249 283.132 16.2728 283.132 35.6367H261.693C260.425 27.2227 254.778 21.1134 243.137 21.1133C229.536 21.1133 222.735 29.5275 222.735 45.0879C222.735 60.6482 229.536 69.0625 243.137 69.0625C254.547 69.0624 260.425 63.4143 261.693 53.8477H283.132C283.132 73.5573 266.535 87.2733 243.137 87.2734C216.626 87.2734 200.374 70.0997 200.374 45.0879C200.374 20.0761 216.626 2.90234 243.137 2.90234ZM98.0137 22.2656H56.5195V35.752H94.3252V52.8105H56.5195V67.9102H98.0137V86.1211H34.1582V16.5059C34.1584 9.62918 39.7336 4.05469 46.6104 4.05469H98.0137V22.2656ZM165.318 53.8477V4.05469H186.526V86.1211H163.013L133.506 36.3281V86.1211H112.298V4.05469H135.812L165.318 53.8477ZM435.372 4.05469C463.035 4.05486 478.134 18.9236 478.134 45.0879C478.134 71.2522 463.035 86.1209 435.372 86.1211H400.678V26.9766H423.038V68.6016H436.524C449.318 68.6015 455.773 60.8787 455.773 45.0879C455.773 29.2971 449.318 21.5743 436.524 21.5742H423.038V21.7881H400.678V4.05469H435.372ZM555.842 22.2656H514.348V35.752H552.153V52.8105H514.348V67.9102H555.842V86.1211H491.986V16.5059C491.987 9.62918 497.562 4.05469 504.438 4.05469H555.842V22.2656Z" fill="#1CC972"/>
<path d="M145.693 111.664C148.059 111.664 150.239 112.156 152.233 113.14C154.253 114.097 155.901 115.439 157.177 117.167L152.312 120.995C150.718 118.895 148.511 117.845 145.693 117.845C143.328 117.845 141.36 118.629 139.792 120.197C138.224 121.766 137.44 123.773 137.44 126.218C137.44 128.664 138.224 130.671 139.792 132.239C141.36 133.808 143.328 134.592 145.693 134.592C148.458 134.592 150.664 133.515 152.312 131.362L157.177 135.23C155.901 136.984 154.253 138.353 152.233 139.337C150.239 140.294 148.059 140.772 145.693 140.772C141.6 140.772 138.184 139.417 135.446 136.705C132.708 133.967 131.339 130.472 131.339 126.218C131.339 121.965 132.708 118.483 135.446 115.771C138.184 113.033 141.6 111.664 145.693 111.664ZM162.178 120.875C164.357 118.695 167.069 117.606 170.312 117.606C173.555 117.606 176.266 118.695 178.446 120.875C180.626 123.028 181.716 125.793 181.716 129.169C181.716 132.545 180.626 135.323 178.446 137.503C176.266 139.682 173.555 140.772 170.312 140.772C167.069 140.772 164.357 139.682 162.178 137.503C159.998 135.323 158.908 132.545 158.908 129.169C158.908 125.793 159.998 123.028 162.178 120.875ZM174.419 124.583C173.329 123.387 171.96 122.789 170.312 122.789C168.664 122.789 167.281 123.387 166.165 124.583C165.075 125.78 164.53 127.308 164.53 129.169C164.53 131.03 165.075 132.572 166.165 133.794C167.281 134.991 168.664 135.589 170.312 135.589C171.96 135.589 173.329 134.991 174.419 133.794C175.509 132.572 176.054 131.03 176.054 129.169C176.054 127.308 175.509 125.78 174.419 124.583ZM200.585 110.149H206.407V140.254H200.585V138.34C198.964 139.961 196.837 140.772 194.206 140.772C191.016 140.772 188.424 139.696 186.43 137.542C184.437 135.389 183.44 132.598 183.44 129.169C183.44 125.74 184.437 122.962 186.43 120.835C188.424 118.682 191.016 117.606 194.206 117.606C196.864 117.606 198.991 118.403 200.585 119.998V110.149ZM198.951 124.583C197.861 123.387 196.492 122.789 194.844 122.789C193.196 122.789 191.826 123.387 190.737 124.583C189.647 125.78 189.102 127.308 189.102 129.169C189.102 131.03 189.647 132.558 190.737 133.754C191.826 134.951 193.196 135.549 194.844 135.549C196.492 135.549 197.861 134.951 198.951 133.754C200.041 132.558 200.585 131.03 200.585 129.169C200.585 127.308 200.041 125.78 198.951 124.583ZM220.234 117.606C223.131 117.606 225.564 118.589 227.531 120.556C229.525 122.497 230.521 125.288 230.521 128.93C230.521 129.727 230.495 130.339 230.442 130.764H214.572C214.838 132.226 215.476 133.396 216.486 134.273C217.523 135.123 218.745 135.549 220.154 135.549C222.254 135.549 223.849 134.658 224.939 132.877L229.923 135.389C228.913 137.064 227.557 138.38 225.856 139.337C224.155 140.294 222.254 140.772 220.154 140.772C216.911 140.772 214.2 139.682 212.02 137.503C209.84 135.323 208.75 132.545 208.75 129.169C208.75 125.793 209.853 123.028 212.06 120.875C214.266 118.695 216.991 117.606 220.234 117.606ZM220.154 122.789C219.011 122.789 217.974 123.108 217.044 123.746C216.114 124.358 215.423 125.208 214.971 126.298H224.7C224.7 125.474 224.341 124.69 223.623 123.945C222.932 123.175 221.776 122.789 220.154 122.789ZM243.627 112.143H265.637V117.606H257.702V140.254H251.522V117.606H243.627V112.143ZM267.703 120.875C269.883 118.695 272.594 117.606 275.838 117.606C279.081 117.606 281.792 118.695 283.972 120.875C286.152 123.028 287.241 125.793 287.241 129.169C287.241 132.545 286.152 135.323 283.972 137.503C281.792 139.682 279.081 140.772 275.838 140.772C272.594 140.772 269.883 139.682 267.703 137.503C265.523 135.323 264.434 132.545 264.434 129.169C264.434 125.793 265.523 123.028 267.703 120.875ZM279.945 124.583C278.855 123.387 277.486 122.789 275.838 122.789C274.189 122.789 272.807 123.387 271.691 124.583C270.601 125.78 270.056 127.308 270.056 129.169C270.056 131.03 270.601 132.572 271.691 133.794C272.807 134.991 274.189 135.589 275.838 135.589C277.486 135.589 278.855 134.991 279.945 133.794C281.034 132.572 281.579 131.03 281.579 129.169C281.579 127.308 281.034 125.78 279.945 124.583ZM301.558 112.143H307.738V140.254H301.558V112.143ZM323.668 117.606C325.689 117.606 327.47 118.35 329.012 119.838C330.58 121.327 331.364 123.294 331.364 125.74V125.82V140.254H325.543V128.172C325.543 124.69 324.267 122.949 321.715 122.949C320.465 122.949 319.375 123.228 318.445 123.786C317.541 124.318 316.89 125.062 316.491 126.019V140.254H310.67V118.084H316.491V121.114C317.342 120.025 318.418 119.174 319.721 118.562C321.05 117.925 322.366 117.606 323.668 117.606ZM347.344 117.606C349.364 117.606 351.145 118.35 352.687 119.838C354.255 121.327 355.039 123.294 355.039 125.74V125.82V140.254H349.218V128.172C349.218 124.69 347.942 122.949 345.39 122.949C344.14 122.949 343.051 123.228 342.12 123.786C341.216 124.318 340.565 125.062 340.166 126.019V140.254H334.345V118.084H340.166V121.114C341.017 120.025 342.094 119.174 343.396 118.562C344.725 117.925 346.041 117.606 347.344 117.606ZM360.652 120.875C362.831 118.695 365.543 117.606 368.786 117.606C372.029 117.606 374.74 118.695 376.92 120.875C379.1 123.028 380.19 125.793 380.19 129.169C380.19 132.545 379.1 135.323 376.92 137.503C374.74 139.682 372.029 140.772 368.786 140.772C365.543 140.772 362.831 139.682 360.652 137.503C358.472 135.323 357.382 132.545 357.382 129.169C357.382 125.793 358.472 123.028 360.652 120.875ZM372.893 124.583C371.803 123.387 370.434 122.789 368.786 122.789C367.138 122.789 365.755 123.387 364.639 124.583C363.549 125.78 363.004 127.308 363.004 129.169C363.004 131.03 363.549 132.572 364.639 133.794C365.755 134.991 367.138 135.589 368.786 135.589C370.434 135.589 371.803 134.991 372.893 133.794C373.983 132.572 374.528 131.03 374.528 129.169C374.528 127.308 373.983 125.78 372.893 124.583ZM379.837 118.084H385.658L390.204 131.601L394.71 118.084H400.531L393.075 140.254H387.253L379.837 118.084ZM411.234 117.606C413.388 117.606 415.195 118.323 416.657 119.759C418.146 121.168 418.89 123.387 418.89 126.418V126.537V140.254H413.069V137.423C411.447 139.656 409.108 140.772 406.051 140.772C404.243 140.772 402.622 140.227 401.186 139.137C399.777 138.048 399.073 136.532 399.073 134.592C399.073 132.013 399.963 130.059 401.744 128.73C403.525 127.375 405.679 126.697 408.204 126.697H413.109V126.458C413.109 124.118 412.098 122.949 410.078 122.949C409.041 122.949 408.005 123.095 406.968 123.387C405.958 123.68 405.2 123.972 404.695 124.264L403.938 124.703L401.744 120.437C401.851 120.357 401.997 120.264 402.183 120.157C402.369 120.025 402.768 119.799 403.379 119.48C404.017 119.134 404.682 118.842 405.373 118.602C406.064 118.337 406.941 118.111 408.005 117.925C409.068 117.712 410.145 117.606 411.234 117.606ZM408.443 130.565C406.104 130.565 404.934 131.601 404.934 133.675C404.934 134.525 405.213 135.203 405.772 135.708C406.357 136.187 407.181 136.426 408.244 136.426C409.626 136.426 410.769 135.828 411.673 134.632C412.603 133.409 413.069 132.253 413.069 131.163V130.565H408.443ZM424.192 112.063H429.814V118.084H435.556V123.427H429.814V129.009C429.814 129.009 429.814 129.063 429.814 129.169C429.814 129.169 429.814 129.86 429.814 131.242C429.814 131.854 429.841 132.385 429.894 132.837C429.947 133.289 430.054 133.741 430.213 134.193C430.373 134.645 430.625 134.991 430.971 135.23C431.316 135.469 431.755 135.589 432.287 135.589C432.898 135.589 433.483 135.496 434.041 135.31C434.599 135.097 434.998 134.884 435.237 134.672L435.636 134.392L437.47 138.619C437.337 138.779 437.125 138.978 436.832 139.217C436.566 139.456 435.942 139.775 434.958 140.174C434.001 140.573 432.951 140.772 431.808 140.772C430.452 140.772 429.283 140.546 428.299 140.094C427.316 139.643 426.558 139.084 426.026 138.42C425.521 137.729 425.123 136.838 424.83 135.748C424.538 134.632 424.352 133.608 424.272 132.678C424.219 131.721 424.192 130.551 424.192 129.169V123.427H420.564V118.084H424.192V112.063ZM448.419 117.606C451.316 117.606 453.749 118.589 455.716 120.556C457.709 122.497 458.706 125.288 458.706 128.93C458.706 129.727 458.68 130.339 458.626 130.764H442.757C443.022 132.226 443.66 133.396 444.671 134.273C445.707 135.123 446.93 135.549 448.339 135.549C450.439 135.549 452.034 134.658 453.124 132.877L458.108 135.389C457.098 137.064 455.742 138.38 454.041 139.337C452.34 140.294 450.439 140.772 448.339 140.772C445.096 140.772 442.384 139.682 440.205 137.503C438.025 135.323 436.935 132.545 436.935 129.169C436.935 125.793 438.038 123.028 440.245 120.875C442.451 118.695 445.176 117.606 448.419 117.606ZM448.339 122.789C447.196 122.789 446.159 123.108 445.229 123.746C444.298 124.358 443.607 125.208 443.155 126.298H452.885C452.885 125.474 452.526 124.69 451.808 123.945C451.117 123.175 449.961 122.789 448.339 122.789Z" fill="#1CC972"/>
</svg>
