<svg width="622" height="167" viewBox="0 0 622 167" fill="none" xmlns="http://www.w3.org/2000/svg">
<path d="M46.8591 62.5078H4.55694V1.29001H18.3997V51.2444H46.8591V62.5078ZM72.7922 63.3676C58.3476 63.3676 50.2654 54.3397 50.2654 40.325C50.2654 26.6541 58.0036 17.2823 72.2763 17.2823C86.635 17.2823 94.3732 26.7401 94.3732 39.8091C94.3732 40.7549 94.2872 41.6147 94.2012 42.6464H61.3569C61.7008 51.6743 65.9998 55.8014 72.7922 55.8014C78.2949 55.8014 81.9061 53.05 83.1958 48.4931H93.4274C91.5359 57.6069 84.7434 63.3676 72.7922 63.3676ZM72.2763 24.8485C66.1717 24.8485 62.3026 28.3737 61.3569 35.4241H83.2818C82.336 28.3737 78.3809 24.8485 72.2763 24.8485ZM121.318 63.3676C107.131 63.3676 99.049 54.3397 99.049 40.325C99.049 26.3962 107.131 17.2823 121.318 17.2823C135.677 17.2823 142.211 26.3102 142.211 34.9942H131.807C131.034 29.7494 128.024 25.7083 121.318 25.7083C114.268 25.7083 110.14 30.5232 110.14 40.325C110.14 50.1267 114.268 54.9416 121.318 54.9416C127.165 54.9416 130.948 51.9323 131.807 45.3118H142.211C142.211 54.8556 135.161 63.3676 121.318 63.3676ZM164.901 62.9377C154.841 62.9377 151.488 59.8424 151.488 50.0407V26.0523H144.524V18.1421H151.488V4.7292H162.58V18.1421H172.209V26.0523H162.58V50.4706C162.58 53.9098 164.041 55.1135 167.566 55.1135L172.209 55.0275V62.5078C170.404 62.6798 166.879 62.9377 164.901 62.9377ZM193.653 63.3676C183.507 63.3676 178.52 58.2088 178.52 47.4613V18.1421H189.612V45.3118C189.612 51.3304 191.761 54.3397 197.178 54.3397C203.024 54.3397 206.808 50.1267 206.808 42.9044V18.1421H217.899V62.5078H207.323V55.2855C204.916 60.0144 200.961 63.3676 193.653 63.3676ZM237.052 62.5078H225.96V18.1421H236.536V28.0298C238.857 20.2056 242.726 17.5402 248.917 17.5402C250.121 17.5402 251.926 17.8842 252.958 18.1421V27.8578L248.401 27.7719C241.609 27.7719 237.052 32.8447 237.052 41.8726V62.5078ZM278.002 63.3676C263.558 63.3676 255.476 54.3397 255.476 40.325C255.476 26.6541 263.214 17.2823 277.487 17.2823C291.845 17.2823 299.583 26.7401 299.583 39.8091C299.583 40.7549 299.497 41.6147 299.411 42.6464H266.567C266.911 51.6743 271.21 55.8014 278.002 55.8014C283.505 55.8014 287.116 53.05 288.406 48.4931H298.638C296.746 57.6069 289.954 63.3676 278.002 63.3676ZM277.487 24.8485C271.382 24.8485 267.513 28.3737 266.567 35.4241H288.492C287.546 28.3737 283.591 24.8485 277.487 24.8485ZM351.032 63.3676C334.008 63.3676 325.754 55.8873 325.754 42.8184H337.104C338.049 50.9005 341.747 54.5976 351.29 54.5976C360.576 54.5976 364.617 50.6426 364.617 44.9679C364.617 40.7549 362.296 38.0035 352.924 36.6278L345.1 35.5101C332.289 33.7045 327.302 29.2335 327.302 19.2598C327.302 8.25439 335.126 0.430201 351.032 0.430201C366.939 0.430201 374.763 8.16841 374.763 20.1196H363.672C362.898 12.8973 358.943 9.20017 350.774 9.20017C342.606 9.20017 338.995 12.9833 338.995 18.572C338.995 22.785 340.973 24.9345 349.141 26.0523L356.965 27.17C369.432 28.9756 376.311 33.7045 376.311 44.28C376.311 55.7154 368.056 63.3676 351.032 63.3676ZM403.446 63.3676C389.001 63.3676 380.919 54.3397 380.919 40.325C380.919 26.6541 388.657 17.2823 402.93 17.2823C417.289 17.2823 425.027 26.7401 425.027 39.8091C425.027 40.7549 424.941 41.6147 424.855 42.6464H392.011C392.355 51.6743 396.654 55.8014 403.446 55.8014C408.949 55.8014 412.56 53.05 413.85 48.4931H424.081C422.19 57.6069 415.397 63.3676 403.446 63.3676ZM402.93 24.8485C396.826 24.8485 392.956 28.3737 392.011 35.4241H413.936C412.99 28.3737 409.035 24.8485 402.93 24.8485ZM442.514 62.5078H431.422V18.1421H441.998V28.0298C444.319 20.2056 448.189 17.5402 454.379 17.5402C455.583 17.5402 457.388 17.8842 458.42 18.1421V27.8578L453.863 27.7719C447.071 27.7719 442.514 32.8447 442.514 41.8726V62.5078ZM475.26 62.5078H464.169V18.1421H475.26V62.5078ZM469.757 11.5216C465.63 11.5216 463.309 9.02821 463.309 5.76097C463.309 2.49373 465.63 0.000300726 469.757 0.000300726C473.884 0.000300726 476.12 2.49373 476.12 5.76097C476.12 9.02821 473.884 11.5216 469.757 11.5216ZM504.12 63.3676C489.675 63.3676 481.593 54.3397 481.593 40.325C481.593 26.6541 489.331 17.2823 503.604 17.2823C517.963 17.2823 525.701 26.7401 525.701 39.8091C525.701 40.7549 525.615 41.6147 525.529 42.6464H492.685C493.029 51.6743 497.328 55.8014 504.12 55.8014C509.623 55.8014 513.234 53.05 514.524 48.4931H524.755C522.864 57.6069 516.071 63.3676 504.12 63.3676ZM503.604 24.8485C497.499 24.8485 493.63 28.3737 492.685 35.4241H514.61C513.664 28.3737 509.709 24.8485 503.604 24.8485ZM550.496 63.3676C536.223 63.3676 530.377 57.263 530.377 48.4931H541.124C541.64 53.222 543.79 56.0593 550.668 56.0593C557.289 56.0593 559.61 53.3079 559.61 50.0407C559.61 47.0314 557.203 45.4838 553.419 44.8819L545.767 43.7642C535.536 42.3025 531.58 38.8633 531.58 31.297C531.58 23.3869 536.997 17.2823 550.496 17.2823C564.081 17.2823 569.498 23.3869 569.498 31.469H558.75C558.32 27.7719 556.945 24.5906 550.41 24.5906C544.821 24.5906 542.672 26.9121 542.672 30.4372C542.672 33.3606 544.392 34.6503 547.573 35.0802L555.139 36.1979C564.941 37.5736 570.701 40.8408 570.701 49.3529C570.701 57.263 564.855 63.3676 550.496 63.3676Z" fill="#FFF9F0"/>
<path d="M144.971 148.701L141.04 144.602C136.02 147.865 130.165 149.538 123.974 149.538C109.084 149.538 102.057 141.758 102.057 132.807C102.057 125.362 105.319 120.426 114.27 116.662C110.339 112.312 108.833 108.297 108.833 103.612C108.833 95.4139 115.274 88.3033 126.902 88.3033C138.446 88.3033 144.971 95.4139 144.971 103.612C144.971 110.639 140.872 114.738 130.583 118.502L141.541 130.046C143.131 127.286 144.386 123.94 145.139 119.841H156.599C155.344 126.951 152.584 132.974 148.819 137.659L159.443 148.701H144.971ZM124.894 139.918C128.073 139.918 131.252 139.165 134.18 137.492L119.959 122.601C116.362 124.609 114.856 127.537 114.856 131.469C114.856 136.488 119.206 139.918 124.894 139.918ZM120.963 103.277C120.963 106.122 121.716 108.798 125.062 112.646C130.332 110.388 132.842 106.958 132.842 103.277C132.842 99.5129 130.499 97.2542 126.902 97.2542C123.305 97.2542 120.963 99.5129 120.963 103.277Z" fill="#FDD442"/>
<path d="M245.173 149.734H231.158L219.809 104.767L208.46 149.734H194.359L176.991 88.5166H189.63L201.753 135.634L213.79 88.5166H225.828L237.865 135.634L249.988 88.5166H262.627L245.173 149.734ZM321.331 149.734H310.24V105.369H320.815V115.256C323.137 107.432 327.006 104.767 333.196 104.767C334.4 104.767 336.206 105.111 337.238 105.369V115.084L332.681 114.998C325.888 114.998 321.331 120.071 321.331 129.099V149.734ZM386.664 149.734H373.853L360.87 130.647L354.078 137.353V149.734H342.986V88.5166H354.078V124.714L372.907 105.369H385.804L368.35 122.909L386.664 149.734ZM407.986 150.594C393.714 150.594 387.867 144.49 387.867 135.72H398.614C399.13 140.449 401.28 143.286 408.158 143.286C414.779 143.286 417.1 140.535 417.1 137.267C417.1 134.258 414.693 132.71 410.91 132.108L403.257 130.991C393.026 129.529 389.071 126.09 389.071 118.524C389.071 110.613 394.487 104.509 407.986 104.509C421.571 104.509 426.988 110.613 426.988 118.696H416.24C415.81 114.998 414.435 111.817 407.9 111.817C402.312 111.817 400.162 114.139 400.162 117.664C400.162 120.587 401.882 121.877 405.063 122.307L412.629 123.425C422.431 124.8 428.192 128.067 428.192 136.579C428.192 144.49 422.345 150.594 407.986 150.594ZM473.971 149.734H462.879V122.565C462.879 116.546 460.73 113.537 455.313 113.537C449.466 113.537 445.683 117.75 445.683 124.972V149.734H434.592V88.5166H445.683V111.731C448.091 107.432 452.046 104.509 458.752 104.509C468.898 104.509 473.971 109.668 473.971 120.415V149.734Z" fill="#FFF9F0"/>
<path d="M554.128 150.594C547.422 150.594 542.951 147.843 540.457 143.028V166.586H529.366V105.369H539.941V112.935C542.349 107.776 546.648 104.509 554.128 104.509C566.079 104.509 573.645 113.021 573.645 127.552C573.645 142.082 566.079 150.594 554.128 150.594ZM551.463 142.168C558.083 142.168 562.554 137.697 562.554 127.552C562.554 117.406 558.083 112.935 551.463 112.935C544.928 112.935 540.457 117.406 540.457 127.552C540.457 137.697 544.928 142.168 551.463 142.168ZM598.396 150.594C584.124 150.594 578.277 144.49 578.277 135.72H589.024C589.54 140.449 591.69 143.286 598.568 143.286C605.189 143.286 607.51 140.535 607.51 137.267C607.51 134.258 605.103 132.71 601.32 132.108L593.667 130.991C583.436 129.529 579.481 126.09 579.481 118.524C579.481 110.613 584.897 104.509 598.396 104.509C611.981 104.509 617.398 110.613 617.398 118.696H606.65C606.22 114.998 604.845 111.817 598.31 111.817C592.722 111.817 590.572 114.139 590.572 117.664C590.572 120.587 592.292 121.877 595.473 122.307L603.039 123.425C612.841 124.8 618.602 128.067 618.602 136.579C618.602 144.49 612.755 150.594 598.396 150.594Z" fill="#FFF9F0"/>
<path d="M283.593 107.053C284.96 107.198 286.284 107.483 287.552 107.893L289.725 104.587L292.307 105.605L291.475 109.653C292.442 110.222 293.355 110.873 294.208 111.593L297.395 109.577L299.327 111.57L297.109 114.625C297.887 115.634 298.57 116.72 299.144 117.87L302.876 117.158L303.859 119.755L300.61 121.825C300.846 122.764 301.016 123.728 301.113 124.715L304.912 125.508V128.284L301.075 128.954C300.954 129.998 300.752 131.016 300.474 132.004L303.815 134.047L302.796 136.629L298.881 135.956C298.238 137.158 297.473 138.284 296.604 139.32L298.841 142.614L296.848 144.546L293.513 142.286C292.542 143.035 291.499 143.696 290.396 144.255L291.15 148.203L288.553 149.186L286.374 145.767C285.488 145.992 284.579 146.157 283.65 146.258L282.955 150.241H280.178L279.347 146.26C278.327 146.149 277.33 145.961 276.362 145.701L274.26 149.14L271.678 148.121L272.361 144.139C271.165 143.513 270.041 142.768 269.005 141.919L265.692 144.17L263.76 142.177L266.004 138.863C265.232 137.884 264.549 136.831 263.971 135.715L260.05 136.332L259.068 133.736L262.435 131.74C262.194 130.835 262.017 129.905 261.907 128.954L258.071 128.284V125.508L261.869 124.715C261.974 123.634 262.167 122.58 262.44 121.558L259.222 119.443L260.241 116.861L263.96 117.624C264.608 116.37 265.385 115.195 266.276 114.116L264.25 110.912L266.243 108.98L269.275 111.182C269.99 110.616 270.746 110.099 271.537 109.636L270.857 105.315L273.453 104.333L275.541 107.855C276.784 107.463 278.08 107.189 279.416 107.049L280.178 103.396H282.955L283.593 107.053ZM281.491 114.414C274.728 114.414 269.247 119.897 269.247 126.659C269.247 133.422 274.728 138.903 281.491 138.903C288.253 138.903 293.736 133.422 293.736 126.659C293.736 119.897 288.253 114.414 281.491 114.414Z" fill="#FFF9F0"/>
<path d="M503.559 107.053C504.925 107.198 506.249 107.482 507.517 107.892L509.69 104.587L512.272 105.605L511.441 109.654C512.408 110.223 513.321 110.873 514.173 111.593L517.361 109.577L519.292 111.57L517.075 114.624C517.853 115.633 518.536 116.72 519.11 117.87L522.842 117.158L523.825 119.755L520.576 121.825C520.812 122.764 520.981 123.728 521.078 124.715L524.876 125.508V128.284L521.04 128.954C520.919 129.998 520.716 131.016 520.439 132.004L523.781 134.047L522.762 136.629L518.846 135.956C518.203 137.157 517.439 138.284 516.57 139.32L518.807 142.614L516.814 144.546L513.478 142.286C512.506 143.035 511.463 143.695 510.36 144.255L511.114 148.203L508.518 149.186L506.338 145.767C505.453 145.992 504.544 146.157 503.616 146.258L502.919 150.241H500.144L499.313 146.26C497.857 146.102 496.448 145.788 495.105 145.331L496.481 145.874L494.096 149.774L491.514 148.756L492.292 144.222L493.356 144.641C491.771 143.926 490.299 143.007 488.97 141.919L485.657 144.17L483.725 142.177L485.968 138.862C485.196 137.884 484.515 136.831 483.937 135.715L480.015 136.332L479.033 133.736L482.4 131.74C482.159 130.835 481.982 129.905 481.872 128.954L478.036 128.284V125.508L481.833 124.715C481.939 123.634 482.133 122.58 482.406 121.558L479.188 119.443L480.206 116.861L483.926 117.624C484.574 116.37 485.35 115.194 486.241 114.115L484.214 110.912L486.208 108.98L489.24 111.181C489.955 110.615 490.711 110.099 491.501 109.636L490.822 105.315L493.417 104.333L495.505 107.855C496.749 107.462 498.045 107.189 499.381 107.049L500.144 103.396H502.919L503.559 107.053ZM501.457 114.414C494.694 114.414 489.211 119.897 489.211 126.659C489.211 133.422 494.694 138.903 501.457 138.903C508.219 138.903 513.701 133.422 513.701 126.659C513.701 119.897 508.219 114.414 501.457 114.414Z" fill="#FFF9F0"/>
</svg>
