<svg width="216" height="612" viewBox="0 0 216 612" fill="none" xmlns="http://www.w3.org/2000/svg">
<path d="M94.8293 192.074L147.558 0L216 221.512L94.8293 192.074Z" fill="#FFF9F0"/>
<path d="M73.6596 501.669L214.749 282.521L129.185 612L73.6596 501.669Z" fill="#FFF9F0"/>
<path d="M79.8571 233.922C89.3883 284.841 98.3864 332.912 107.947 384.009L0 322.702C18.1087 281.115 35.7932 240.5 54.8868 196.609C59.1506 217.031 62.7035 234.07 66.3314 251.481L69.3163 265.807L79.8571 233.922Z" fill="#FFF9F0"/>
<path d="M96.5356 218.7L214.055 246.659L127.021 383.249C122.996 361.528 119.065 340.308 115.156 319.198C108.994 285.933 102.884 252.942 96.5356 218.7Z" fill="#FFF9F0"/>
<path d="M106.851 412.423L64.1117 480.153C57.3218 465.966 50.6439 452.004 44.0403 438.198C30.4878 409.865 17.2508 382.191 4.01221 354.58L106.851 412.423Z" fill="#FFF9F0"/>
</svg>
